G04 EAGLE Gerber RS-274X export*
G75*
%MOMM*%
%FSLAX34Y34*%
%LPD*%
%INTop Copper*%
%IPPOS*%
%AMOC8*
5,1,8,0,0,1.08239X$1,22.5*%
G01*
G04 Define Apertures*
%ADD10C,0.025400*%
%ADD11C,0.050800*%
%ADD12R,3.500000X1.700000*%
%ADD13R,1.700000X3.500000*%
%ADD14C,0.606400*%
%ADD15C,0.152400*%
%ADD16C,1.500000*%
%ADD17R,1.275000X1.275000*%
%ADD18R,0.606400X0.606400*%
D10*
X15071Y905214D02*
X15706Y905214D01*
X15706Y903097D01*
X14436Y903097D01*
X14381Y903099D01*
X14325Y903104D01*
X14271Y903113D01*
X14217Y903126D01*
X14164Y903142D01*
X14112Y903161D01*
X14061Y903184D01*
X14013Y903210D01*
X13965Y903240D01*
X13920Y903272D01*
X13878Y903307D01*
X13837Y903345D01*
X13799Y903386D01*
X13764Y903428D01*
X13732Y903473D01*
X13702Y903521D01*
X13676Y903569D01*
X13653Y903620D01*
X13634Y903672D01*
X13618Y903725D01*
X13605Y903779D01*
X13596Y903833D01*
X13591Y903889D01*
X13589Y903944D01*
X13589Y906060D01*
X13591Y906118D01*
X13597Y906175D01*
X13607Y906232D01*
X13620Y906289D01*
X13638Y906344D01*
X13659Y906397D01*
X13684Y906450D01*
X13712Y906500D01*
X13744Y906548D01*
X13779Y906595D01*
X13817Y906638D01*
X13858Y906679D01*
X13901Y906717D01*
X13948Y906752D01*
X13996Y906784D01*
X14046Y906812D01*
X14099Y906837D01*
X14152Y906858D01*
X14207Y906876D01*
X14264Y906889D01*
X14321Y906899D01*
X14378Y906905D01*
X14436Y906907D01*
X15706Y906907D01*
X17490Y906907D02*
X17490Y903097D01*
X19607Y903097D02*
X17490Y906907D01*
X19607Y906907D02*
X19607Y903097D01*
X21392Y903097D02*
X21392Y906907D01*
X22450Y906907D01*
X22514Y906905D01*
X22578Y906899D01*
X22641Y906890D01*
X22703Y906876D01*
X22765Y906859D01*
X22825Y906838D01*
X22884Y906814D01*
X22942Y906786D01*
X22997Y906754D01*
X23051Y906720D01*
X23102Y906682D01*
X23152Y906641D01*
X23198Y906597D01*
X23242Y906551D01*
X23283Y906501D01*
X23321Y906450D01*
X23355Y906396D01*
X23387Y906341D01*
X23415Y906283D01*
X23439Y906224D01*
X23460Y906164D01*
X23477Y906102D01*
X23491Y906040D01*
X23500Y905977D01*
X23506Y905913D01*
X23508Y905849D01*
X23508Y904155D01*
X23506Y904091D01*
X23500Y904027D01*
X23491Y903964D01*
X23477Y903902D01*
X23460Y903840D01*
X23439Y903780D01*
X23415Y903721D01*
X23387Y903663D01*
X23355Y903608D01*
X23321Y903554D01*
X23283Y903503D01*
X23242Y903453D01*
X23198Y903407D01*
X23152Y903363D01*
X23102Y903322D01*
X23051Y903284D01*
X22997Y903250D01*
X22942Y903218D01*
X22884Y903190D01*
X22825Y903166D01*
X22765Y903145D01*
X22703Y903128D01*
X22641Y903114D01*
X22578Y903105D01*
X22514Y903099D01*
X22450Y903097D01*
X21392Y903097D01*
X13420Y788374D02*
X13418Y788316D01*
X13412Y788259D01*
X13402Y788202D01*
X13389Y788145D01*
X13371Y788090D01*
X13350Y788037D01*
X13325Y787984D01*
X13297Y787934D01*
X13265Y787886D01*
X13230Y787839D01*
X13192Y787796D01*
X13151Y787755D01*
X13108Y787717D01*
X13061Y787682D01*
X13013Y787650D01*
X12963Y787622D01*
X12910Y787597D01*
X12857Y787576D01*
X12802Y787558D01*
X12745Y787545D01*
X12688Y787535D01*
X12631Y787529D01*
X12573Y787527D01*
X12490Y787529D01*
X12407Y787535D01*
X12325Y787544D01*
X12243Y787558D01*
X12162Y787575D01*
X12081Y787596D01*
X12002Y787621D01*
X11924Y787649D01*
X11847Y787681D01*
X11772Y787716D01*
X11699Y787755D01*
X11627Y787798D01*
X11558Y787843D01*
X11491Y787892D01*
X11426Y787944D01*
X11363Y787998D01*
X11303Y788056D01*
X11409Y790490D02*
X11411Y790545D01*
X11416Y790601D01*
X11425Y790655D01*
X11438Y790709D01*
X11454Y790762D01*
X11473Y790814D01*
X11496Y790865D01*
X11522Y790914D01*
X11552Y790961D01*
X11584Y791006D01*
X11619Y791048D01*
X11657Y791089D01*
X11698Y791127D01*
X11740Y791162D01*
X11785Y791194D01*
X11833Y791224D01*
X11881Y791250D01*
X11932Y791273D01*
X11984Y791292D01*
X12037Y791308D01*
X12091Y791321D01*
X12145Y791330D01*
X12201Y791335D01*
X12256Y791337D01*
X12256Y791338D02*
X12335Y791336D01*
X12413Y791330D01*
X12491Y791321D01*
X12568Y791307D01*
X12645Y791290D01*
X12721Y791268D01*
X12795Y791244D01*
X12869Y791215D01*
X12940Y791183D01*
X13010Y791147D01*
X13079Y791108D01*
X13145Y791066D01*
X13209Y791020D01*
X11832Y789749D02*
X11785Y789779D01*
X11740Y789812D01*
X11697Y789848D01*
X11657Y789886D01*
X11619Y789927D01*
X11584Y789970D01*
X11552Y790016D01*
X11522Y790063D01*
X11496Y790113D01*
X11473Y790164D01*
X11454Y790216D01*
X11438Y790269D01*
X11425Y790324D01*
X11416Y790379D01*
X11411Y790434D01*
X11409Y790490D01*
X12997Y789115D02*
X13044Y789085D01*
X13089Y789052D01*
X13132Y789016D01*
X13172Y788978D01*
X13210Y788937D01*
X13245Y788894D01*
X13277Y788848D01*
X13307Y788801D01*
X13333Y788751D01*
X13356Y788700D01*
X13375Y788648D01*
X13391Y788595D01*
X13404Y788540D01*
X13413Y788485D01*
X13418Y788430D01*
X13420Y788374D01*
X12996Y789115D02*
X11832Y789750D01*
X14961Y791337D02*
X14961Y787527D01*
X14961Y791337D02*
X16019Y791337D01*
X16083Y791335D01*
X16147Y791329D01*
X16210Y791320D01*
X16272Y791306D01*
X16334Y791289D01*
X16394Y791268D01*
X16453Y791244D01*
X16511Y791216D01*
X16566Y791184D01*
X16620Y791150D01*
X16671Y791112D01*
X16721Y791071D01*
X16767Y791027D01*
X16811Y790981D01*
X16852Y790931D01*
X16890Y790880D01*
X16924Y790826D01*
X16956Y790771D01*
X16984Y790713D01*
X17008Y790654D01*
X17029Y790594D01*
X17046Y790532D01*
X17060Y790470D01*
X17069Y790407D01*
X17075Y790343D01*
X17077Y790279D01*
X17077Y788585D01*
X17075Y788521D01*
X17069Y788457D01*
X17060Y788394D01*
X17046Y788332D01*
X17029Y788270D01*
X17008Y788210D01*
X16984Y788151D01*
X16956Y788093D01*
X16924Y788038D01*
X16890Y787984D01*
X16852Y787933D01*
X16811Y787883D01*
X16767Y787837D01*
X16721Y787793D01*
X16671Y787752D01*
X16620Y787714D01*
X16566Y787680D01*
X16511Y787648D01*
X16453Y787620D01*
X16394Y787596D01*
X16334Y787575D01*
X16272Y787558D01*
X16210Y787544D01*
X16147Y787535D01*
X16083Y787529D01*
X16019Y787527D01*
X14961Y787527D01*
X18528Y787527D02*
X19798Y791337D01*
X21068Y787527D01*
X20751Y788480D02*
X18846Y788480D01*
D11*
X95673Y354753D02*
X96943Y354753D01*
X96943Y350520D01*
X94403Y350520D01*
X94322Y350522D01*
X94242Y350528D01*
X94162Y350537D01*
X94083Y350551D01*
X94004Y350568D01*
X93926Y350589D01*
X93849Y350613D01*
X93774Y350641D01*
X93700Y350673D01*
X93627Y350708D01*
X93557Y350747D01*
X93488Y350789D01*
X93421Y350834D01*
X93356Y350882D01*
X93294Y350934D01*
X93235Y350988D01*
X93178Y351045D01*
X93124Y351104D01*
X93072Y351166D01*
X93024Y351231D01*
X92979Y351298D01*
X92937Y351367D01*
X92898Y351437D01*
X92863Y351510D01*
X92831Y351584D01*
X92803Y351659D01*
X92779Y351736D01*
X92758Y351814D01*
X92741Y351893D01*
X92727Y351972D01*
X92718Y352052D01*
X92712Y352132D01*
X92710Y352213D01*
X92710Y356447D01*
X92712Y356528D01*
X92718Y356608D01*
X92727Y356688D01*
X92741Y356767D01*
X92758Y356846D01*
X92779Y356924D01*
X92803Y357001D01*
X92831Y357076D01*
X92863Y357150D01*
X92898Y357223D01*
X92937Y357293D01*
X92979Y357362D01*
X93024Y357429D01*
X93072Y357494D01*
X93124Y357556D01*
X93178Y357615D01*
X93235Y357672D01*
X93294Y357726D01*
X93356Y357778D01*
X93421Y357826D01*
X93488Y357871D01*
X93556Y357913D01*
X93627Y357952D01*
X93700Y357987D01*
X93774Y358019D01*
X93849Y358047D01*
X93926Y358071D01*
X94004Y358092D01*
X94083Y358109D01*
X94162Y358123D01*
X94242Y358132D01*
X94322Y358138D01*
X94403Y358140D01*
X96943Y358140D01*
X100513Y358140D02*
X100513Y350520D01*
X104746Y350520D02*
X100513Y358140D01*
X104746Y358140D02*
X104746Y350520D01*
X108316Y350520D02*
X108316Y358140D01*
X110432Y358140D01*
X110522Y358138D01*
X110612Y358132D01*
X110701Y358123D01*
X110790Y358110D01*
X110878Y358092D01*
X110965Y358072D01*
X111052Y358047D01*
X111137Y358019D01*
X111221Y357987D01*
X111304Y357952D01*
X111385Y357913D01*
X111464Y357871D01*
X111542Y357826D01*
X111617Y357777D01*
X111691Y357725D01*
X111762Y357670D01*
X111831Y357612D01*
X111897Y357551D01*
X111960Y357488D01*
X112021Y357422D01*
X112079Y357353D01*
X112134Y357282D01*
X112186Y357208D01*
X112235Y357133D01*
X112280Y357055D01*
X112322Y356976D01*
X112361Y356895D01*
X112396Y356812D01*
X112428Y356728D01*
X112456Y356643D01*
X112481Y356556D01*
X112501Y356469D01*
X112519Y356381D01*
X112532Y356292D01*
X112541Y356203D01*
X112547Y356113D01*
X112549Y356023D01*
X112549Y352637D01*
X112547Y352547D01*
X112541Y352457D01*
X112532Y352368D01*
X112519Y352279D01*
X112501Y352191D01*
X112481Y352104D01*
X112456Y352017D01*
X112428Y351932D01*
X112396Y351848D01*
X112361Y351765D01*
X112322Y351684D01*
X112280Y351605D01*
X112235Y351527D01*
X112186Y351452D01*
X112134Y351378D01*
X112079Y351307D01*
X112021Y351238D01*
X111960Y351172D01*
X111897Y351109D01*
X111831Y351048D01*
X111762Y350990D01*
X111691Y350935D01*
X111617Y350883D01*
X111542Y350834D01*
X111464Y350789D01*
X111385Y350747D01*
X111304Y350708D01*
X111221Y350673D01*
X111137Y350641D01*
X111052Y350613D01*
X110965Y350588D01*
X110878Y350568D01*
X110790Y350550D01*
X110701Y350537D01*
X110612Y350528D01*
X110522Y350522D01*
X110432Y350520D01*
X108316Y350520D01*
X217678Y358394D02*
X220218Y350774D01*
X222758Y358394D01*
X227091Y350774D02*
X228784Y350774D01*
X227091Y350774D02*
X227010Y350776D01*
X226930Y350782D01*
X226850Y350791D01*
X226771Y350805D01*
X226692Y350822D01*
X226614Y350843D01*
X226537Y350867D01*
X226462Y350895D01*
X226388Y350927D01*
X226315Y350962D01*
X226245Y351001D01*
X226176Y351043D01*
X226109Y351088D01*
X226044Y351136D01*
X225982Y351188D01*
X225923Y351242D01*
X225866Y351299D01*
X225812Y351358D01*
X225760Y351420D01*
X225712Y351485D01*
X225667Y351552D01*
X225625Y351621D01*
X225586Y351691D01*
X225551Y351764D01*
X225519Y351838D01*
X225491Y351913D01*
X225467Y351990D01*
X225446Y352068D01*
X225429Y352147D01*
X225415Y352226D01*
X225406Y352306D01*
X225400Y352386D01*
X225398Y352467D01*
X225398Y356701D01*
X225400Y356782D01*
X225406Y356862D01*
X225415Y356942D01*
X225429Y357021D01*
X225446Y357100D01*
X225467Y357178D01*
X225491Y357255D01*
X225519Y357330D01*
X225551Y357404D01*
X225586Y357477D01*
X225625Y357547D01*
X225667Y357616D01*
X225712Y357683D01*
X225760Y357748D01*
X225812Y357810D01*
X225866Y357869D01*
X225923Y357926D01*
X225982Y357980D01*
X226044Y358032D01*
X226109Y358080D01*
X226176Y358125D01*
X226244Y358167D01*
X226315Y358206D01*
X226388Y358241D01*
X226462Y358273D01*
X226537Y358301D01*
X226614Y358325D01*
X226692Y358346D01*
X226771Y358363D01*
X226850Y358377D01*
X226930Y358386D01*
X227010Y358392D01*
X227091Y358394D01*
X228784Y358394D01*
X233187Y350774D02*
X234880Y350774D01*
X233187Y350774D02*
X233106Y350776D01*
X233026Y350782D01*
X232946Y350791D01*
X232867Y350805D01*
X232788Y350822D01*
X232710Y350843D01*
X232633Y350867D01*
X232558Y350895D01*
X232484Y350927D01*
X232411Y350962D01*
X232341Y351001D01*
X232272Y351043D01*
X232205Y351088D01*
X232140Y351136D01*
X232078Y351188D01*
X232019Y351242D01*
X231962Y351299D01*
X231908Y351358D01*
X231856Y351420D01*
X231808Y351485D01*
X231763Y351552D01*
X231721Y351621D01*
X231682Y351691D01*
X231647Y351764D01*
X231615Y351838D01*
X231587Y351913D01*
X231563Y351990D01*
X231542Y352068D01*
X231525Y352147D01*
X231511Y352226D01*
X231502Y352306D01*
X231496Y352386D01*
X231494Y352467D01*
X231494Y356701D01*
X231496Y356782D01*
X231502Y356862D01*
X231511Y356942D01*
X231525Y357021D01*
X231542Y357100D01*
X231563Y357178D01*
X231587Y357255D01*
X231615Y357330D01*
X231647Y357404D01*
X231682Y357477D01*
X231721Y357547D01*
X231763Y357616D01*
X231808Y357683D01*
X231856Y357748D01*
X231908Y357810D01*
X231962Y357869D01*
X232019Y357926D01*
X232078Y357980D01*
X232140Y358032D01*
X232205Y358080D01*
X232272Y358125D01*
X232340Y358167D01*
X232411Y358206D01*
X232484Y358241D01*
X232558Y358273D01*
X232633Y358301D01*
X232710Y358325D01*
X232788Y358346D01*
X232867Y358363D01*
X232946Y358377D01*
X233026Y358386D01*
X233106Y358392D01*
X233187Y358394D01*
X234880Y358394D01*
D12*
X53060Y981340D03*
X53060Y955940D03*
X53060Y930540D03*
X53060Y905140D03*
X53060Y879740D03*
X53060Y854340D03*
X53060Y828940D03*
X53060Y803540D03*
X53060Y778140D03*
X53060Y752740D03*
X53060Y727340D03*
X53060Y701940D03*
X53060Y676540D03*
X53060Y651140D03*
X53060Y625740D03*
X53060Y600340D03*
X53060Y574940D03*
X53060Y549540D03*
X53060Y524140D03*
X53060Y498740D03*
X253060Y498740D03*
X253060Y524140D03*
X253060Y549540D03*
X253060Y574940D03*
X253060Y600340D03*
X253060Y625740D03*
X253060Y651140D03*
X253060Y676540D03*
X253060Y701940D03*
X253060Y727340D03*
X253060Y752740D03*
X253060Y778140D03*
X253060Y803540D03*
X253060Y828940D03*
X253060Y854340D03*
X253060Y879740D03*
X253060Y905140D03*
X253060Y930540D03*
X253060Y955940D03*
X253060Y981340D03*
D13*
X127660Y490790D03*
X153060Y490790D03*
X178460Y490790D03*
D14*
X203200Y787400D03*
D15*
X252924Y879604D02*
X253060Y879740D01*
X252924Y879604D02*
X249091Y879604D01*
X203200Y833713D01*
X203200Y787400D01*
D16*
X17660Y863600D03*
D15*
X238446Y915926D02*
X253060Y930540D01*
X238446Y915926D02*
X234613Y915926D01*
D16*
X17660Y889000D03*
D14*
X189096Y802386D03*
D15*
X189096Y870409D02*
X234613Y915926D01*
X189096Y870409D02*
X189096Y802386D01*
D16*
X127000Y355600D03*
D15*
X67674Y534926D02*
X53060Y549540D01*
X67674Y534926D02*
X71507Y534926D01*
X127000Y462217D02*
X127000Y355600D01*
X127000Y462217D02*
X116874Y472343D01*
X116874Y489559D02*
X71507Y534926D01*
X116874Y489559D02*
X116874Y472343D01*
X238446Y966726D02*
X253060Y981340D01*
X238446Y966726D02*
X234613Y966726D01*
X177800Y909913D01*
X177800Y711200D01*
X194324Y694676D01*
X194324Y381000D01*
X194324Y364476D01*
X203200Y355600D01*
D16*
X203200Y355600D03*
X17660Y838200D03*
D17*
X79584Y956056D03*
D15*
X33274Y853814D02*
X17660Y838200D01*
X33274Y853814D02*
X33274Y863787D01*
X38441Y868954D01*
X71507Y868954D01*
X76200Y873647D01*
X76200Y952672D01*
X79584Y956056D01*
D16*
X17660Y812800D03*
D17*
X79584Y981578D03*
X226536Y778764D03*
D16*
X177800Y355600D03*
D17*
X226536Y752856D03*
D15*
X226790Y455200D02*
X238760Y443230D01*
D18*
X238760Y443230D03*
D16*
X152400Y355600D03*
D15*
X226790Y455200D02*
X226790Y752602D01*
X226536Y752856D01*
M02*
