G04 EAGLE Gerber RS-274X export*
G75*
%MOMM*%
%FSLAX34Y34*%
%LPD*%
%INSoldermask Top*%
%IPPOS*%
%AMOC8*
5,1,8,0,0,1.08239X$1,22.5*%
G01*
G04 Define Apertures*
%ADD10R,3.703200X1.903200*%
%ADD11C,2.003200*%
%ADD12C,1.703200*%
%ADD13R,1.903200X3.703200*%
%ADD14C,0.809600*%
%ADD15R,1.478200X1.478200*%
%ADD16R,0.809600X0.809600*%
D10*
X53060Y981340D03*
X53060Y955940D03*
X53060Y930540D03*
X53060Y905140D03*
X53060Y879740D03*
X53060Y854340D03*
X53060Y828940D03*
X53060Y803540D03*
X53060Y778140D03*
X53060Y752740D03*
X53060Y727340D03*
X53060Y701940D03*
X53060Y676540D03*
X53060Y651140D03*
X53060Y625740D03*
X53060Y600340D03*
X53060Y574940D03*
X53060Y549540D03*
X53060Y524140D03*
X53060Y498740D03*
X253060Y498740D03*
X253060Y524140D03*
X253060Y549540D03*
X253060Y574940D03*
X253060Y600340D03*
X253060Y625740D03*
X253060Y651140D03*
X253060Y676540D03*
X253060Y701940D03*
X253060Y727340D03*
X253060Y752740D03*
X253060Y778140D03*
X253060Y803540D03*
X253060Y828940D03*
X253060Y854340D03*
X253060Y879740D03*
X253060Y905140D03*
X253060Y930540D03*
X253060Y955940D03*
X253060Y981340D03*
D11*
X125810Y980040D03*
X180310Y980040D03*
D12*
X128810Y949740D03*
X177310Y949740D03*
D13*
X127660Y490790D03*
X153060Y490790D03*
X178460Y490790D03*
D14*
X203200Y787400D03*
D12*
X17660Y863600D03*
X17660Y889000D03*
D14*
X189096Y802386D03*
D12*
X127000Y355600D03*
X203200Y355600D03*
X17660Y838200D03*
D15*
X79584Y956056D03*
D12*
X17660Y812800D03*
D15*
X79584Y981578D03*
X226536Y778764D03*
D12*
X177800Y355600D03*
D15*
X226536Y752856D03*
D16*
X238760Y443230D03*
D12*
X152400Y355600D03*
M02*
