G04 EAGLE Gerber RS-274X export*
G75*
%MOMM*%
%FSLAX34Y34*%
%LPD*%
%INSolderpaste Top*%
%IPPOS*%
%AMOC8*
5,1,8,0,0,1.08239X$1,22.5*%
G01*
G04 Define Apertures*
%ADD10R,3.500000X1.700000*%
%ADD11R,1.700000X3.500000*%
D10*
X53060Y981340D03*
X53060Y955940D03*
X53060Y930540D03*
X53060Y905140D03*
X53060Y879740D03*
X53060Y854340D03*
X53060Y828940D03*
X53060Y803540D03*
X53060Y778140D03*
X53060Y752740D03*
X53060Y727340D03*
X53060Y701940D03*
X53060Y676540D03*
X53060Y651140D03*
X53060Y625740D03*
X53060Y600340D03*
X53060Y574940D03*
X53060Y549540D03*
X53060Y524140D03*
X53060Y498740D03*
X253060Y498740D03*
X253060Y524140D03*
X253060Y549540D03*
X253060Y574940D03*
X253060Y600340D03*
X253060Y625740D03*
X253060Y651140D03*
X253060Y676540D03*
X253060Y701940D03*
X253060Y727340D03*
X253060Y752740D03*
X253060Y778140D03*
X253060Y803540D03*
X253060Y828940D03*
X253060Y854340D03*
X253060Y879740D03*
X253060Y905140D03*
X253060Y930540D03*
X253060Y955940D03*
X253060Y981340D03*
D11*
X127660Y490790D03*
X153060Y490790D03*
X178460Y490790D03*
M02*
