solid ASCII
  facet normal 0.000000e+00 -1.000000e+00 -0.000000e+00
    outer loop
      vertex   9.000000e+00 3.500000e+00 1.300000e+01
      vertex   4.000000e+00 3.500000e+00 1.300000e+01
      vertex   9.000000e+00 3.500000e+00 1.998401e-15
    endloop
  endfacet
  facet normal -0.000000e+00 -1.000000e+00 0.000000e+00
    outer loop
      vertex   9.000000e+00 3.500000e+00 1.998401e-15
      vertex   4.000000e+00 3.500000e+00 1.300000e+01
      vertex   4.000000e+00 3.500000e+00 8.881784e-16
    endloop
  endfacet
  facet normal -0.000000e+00 1.000000e+00 0.000000e+00
    outer loop
      vertex   4.000000e+00 2.000000e+00 1.300000e+01
      vertex   9.000000e+00 2.000000e+00 1.300000e+01
      vertex   4.000000e+00 2.000000e+00 8.881784e-16
    endloop
  endfacet
  facet normal 0.000000e+00 1.000000e+00 0.000000e+00
    outer loop
      vertex   4.000000e+00 2.000000e+00 8.881784e-16
      vertex   9.000000e+00 2.000000e+00 1.300000e+01
      vertex   9.000000e+00 2.000000e+00 1.998401e-15
    endloop
  endfacet
  facet normal 1.000000e+00 0.000000e+00 2.732857e-16
    outer loop
      vertex   4.000000e+00 3.500000e+00 1.300000e+01
      vertex   4.000000e+00 2.000000e+00 1.300000e+01
      vertex   4.000000e+00 3.500000e+00 8.881784e-16
    endloop
  endfacet
  facet normal 1.000000e+00 0.000000e+00 2.732857e-16
    outer loop
      vertex   4.000000e+00 3.500000e+00 8.881784e-16
      vertex   4.000000e+00 2.000000e+00 1.300000e+01
      vertex   4.000000e+00 2.000000e+00 8.881784e-16
    endloop
  endfacet
  facet normal 1.000000e+00 0.000000e+00 1.366428e-16
    outer loop
      vertex   9.000000e+00 2.000000e+00 1.998401e-15
      vertex   9.000000e+00 2.000000e+00 1.300000e+01
      vertex   9.000000e+00 1.000000e+00 1.998401e-15
    endloop
  endfacet
  facet normal 1.000000e+00 0.000000e+00 1.366428e-16
    outer loop
      vertex   9.000000e+00 1.000000e+00 1.998401e-15
      vertex   9.000000e+00 2.000000e+00 1.300000e+01
      vertex   9.000000e+00 1.000000e+00 1.300000e+01
    endloop
  endfacet
  facet normal 1.000000e+00 -0.000000e+00 1.366428e-16
    outer loop
      vertex   9.000000e+00 3.500000e+00 1.300000e+01
      vertex   9.000000e+00 3.500000e+00 1.998401e-15
      vertex   9.000000e+00 7.000000e+00 1.300000e+01
    endloop
  endfacet
  facet normal 1.000000e+00 0.000000e+00 1.366428e-16
    outer loop
      vertex   9.000000e+00 7.000000e+00 1.300000e+01
      vertex   9.000000e+00 3.500000e+00 1.998401e-15
      vertex   9.000000e+00 7.000000e+00 1.998401e-15
    endloop
  endfacet
  facet normal 2.220446e-16 0.000000e+00 -1.000000e+00
    outer loop
      vertex   9.000000e+00 3.500000e+00 1.998401e-15
      vertex   4.000000e+00 3.500000e+00 8.881784e-16
      vertex   9.000000e+00 7.000000e+00 1.998401e-15
    endloop
  endfacet
  facet normal 2.220446e-16 4.507777e-32 -1.000000e+00
    outer loop
      vertex   9.000000e+00 7.000000e+00 1.998401e-15
      vertex   4.000000e+00 3.500000e+00 8.881784e-16
      vertex   -1.000000e+00 7.000000e+00 -2.220446e-16
    endloop
  endfacet
  facet normal 2.220446e-16 0.000000e+00 -1.000000e+00
    outer loop
      vertex   -1.000000e+00 7.000000e+00 -2.220446e-16
      vertex   4.000000e+00 3.500000e+00 8.881784e-16
      vertex   -1.000000e+00 1.000000e+00 -2.220446e-16
    endloop
  endfacet
  facet normal 2.220446e-16 0.000000e+00 -1.000000e+00
    outer loop
      vertex   -1.000000e+00 1.000000e+00 -2.220446e-16
      vertex   4.000000e+00 3.500000e+00 8.881784e-16
      vertex   4.000000e+00 2.000000e+00 8.881784e-16
    endloop
  endfacet
  facet normal 2.220446e-16 0.000000e+00 -1.000000e+00
    outer loop
      vertex   -1.000000e+00 1.000000e+00 -2.220446e-16
      vertex   4.000000e+00 2.000000e+00 8.881784e-16
      vertex   9.000000e+00 1.000000e+00 1.998401e-15
    endloop
  endfacet
  facet normal 2.220446e-16 0.000000e+00 -1.000000e+00
    outer loop
      vertex   9.000000e+00 1.000000e+00 1.998401e-15
      vertex   4.000000e+00 2.000000e+00 8.881784e-16
      vertex   9.000000e+00 2.000000e+00 1.998401e-15
    endloop
  endfacet
  facet normal 0.000000e+00 1.000000e+00 0.000000e+00
    outer loop
      vertex   9.000000e+00 7.000000e+00 1.300000e+01
      vertex   9.000000e+00 7.000000e+00 1.998401e-15
      vertex   -1.000000e+00 7.000000e+00 1.300000e+01
    endloop
  endfacet
  facet normal 0.000000e+00 1.000000e+00 0.000000e+00
    outer loop
      vertex   -1.000000e+00 7.000000e+00 1.300000e+01
      vertex   9.000000e+00 7.000000e+00 1.998401e-15
      vertex   -1.000000e+00 7.000000e+00 -2.220446e-16
    endloop
  endfacet
  facet normal -7.105427e-16 0.000000e+00 1.000000e+00
    outer loop
      vertex   9.000000e+00 3.500000e+00 1.300000e+01
      vertex   9.000000e+00 7.000000e+00 1.300000e+01
      vertex   4.000000e+00 3.500000e+00 1.300000e+01
    endloop
  endfacet
  facet normal -3.552714e-16 -5.075305e-16 1.000000e+00
    outer loop
      vertex   4.000000e+00 3.500000e+00 1.300000e+01
      vertex   9.000000e+00 7.000000e+00 1.300000e+01
      vertex   -1.000000e+00 7.000000e+00 1.300000e+01
    endloop
  endfacet
  facet normal 0.000000e+00 0.000000e+00 1.000000e+00
    outer loop
      vertex   4.000000e+00 3.500000e+00 1.300000e+01
      vertex   -1.000000e+00 7.000000e+00 1.300000e+01
      vertex   -1.000000e+00 1.000000e+00 1.300000e+01
    endloop
  endfacet
  facet normal 0.000000e+00 0.000000e+00 1.000000e+00
    outer loop
      vertex   4.000000e+00 3.500000e+00 1.300000e+01
      vertex   -1.000000e+00 1.000000e+00 1.300000e+01
      vertex   4.000000e+00 2.000000e+00 1.300000e+01
    endloop
  endfacet
  facet normal -3.552714e-16 1.776357e-15 1.000000e+00
    outer loop
      vertex   4.000000e+00 2.000000e+00 1.300000e+01
      vertex   -1.000000e+00 1.000000e+00 1.300000e+01
      vertex   9.000000e+00 1.000000e+00 1.300000e+01
    endloop
  endfacet
  facet normal -7.105427e-16 0.000000e+00 1.000000e+00
    outer loop
      vertex   4.000000e+00 2.000000e+00 1.300000e+01
      vertex   9.000000e+00 1.000000e+00 1.300000e+01
      vertex   9.000000e+00 2.000000e+00 1.300000e+01
    endloop
  endfacet
  facet normal -1.896300e-33 -1.000000e+00 8.540177e-18
    outer loop
      vertex   9.000000e+00 1.000000e+00 1.998401e-15
      vertex   9.000000e+00 1.000000e+00 1.300000e+01
      vertex   -1.000000e+00 1.000000e+00 -2.220446e-16
    endloop
  endfacet
  facet normal -3.034080e-33 -1.000000e+00 8.540177e-18
    outer loop
      vertex   -1.000000e+00 1.000000e+00 -2.220446e-16
      vertex   9.000000e+00 1.000000e+00 1.300000e+01
      vertex   -1.000000e+00 1.000000e+00 1.300000e+01
    endloop
  endfacet
  facet normal -1.000000e+00 0.000000e+00 -1.708035e-16
    outer loop
      vertex   -1.000000e+00 1.000000e+00 -2.220446e-16
      vertex   -1.000000e+00 1.000000e+00 1.300000e+01
      vertex   -1.000000e+00 7.000000e+00 -2.220446e-16
    endloop
  endfacet
  facet normal -1.000000e+00 0.000000e+00 -1.708035e-16
    outer loop
      vertex   -1.000000e+00 7.000000e+00 -2.220446e-16
      vertex   -1.000000e+00 1.000000e+00 1.300000e+01
      vertex   -1.000000e+00 7.000000e+00 1.300000e+01
    endloop
  endfacet
  facet normal -9.969173e-01 7.845910e-02 0.000000e+00
    outer loop
      vertex   -5.000000e+00 -1.100000e+01 -1.249001e-15
      vertex   -5.000000e+00 -1.100000e+01 4.000000e+00
      vertex   -4.975377e+00 -1.068713e+01 -1.243533e-15
    endloop
  endfacet
  facet normal -9.969173e-01 7.845910e-02 0.000000e+00
    outer loop
      vertex   -4.975377e+00 -1.068713e+01 -1.243533e-15
      vertex   -5.000000e+00 -1.100000e+01 4.000000e+00
      vertex   -4.975377e+00 -1.068713e+01 4.000000e+00
    endloop
  endfacet
  facet normal -9.723699e-01 2.334454e-01 0.000000e+00
    outer loop
      vertex   -4.975377e+00 -1.068713e+01 -1.243533e-15
      vertex   -4.975377e+00 -1.068713e+01 4.000000e+00
      vertex   -4.902113e+00 -1.038197e+01 4.000000e+00
    endloop
  endfacet
  facet normal -9.723699e-01 2.334454e-01 0.000000e+00
    outer loop
      vertex   -4.975377e+00 -1.068713e+01 -1.243533e-15
      vertex   -4.902113e+00 -1.038197e+01 4.000000e+00
      vertex   -4.902113e+00 -1.038197e+01 -1.227266e-15
    endloop
  endfacet
  facet normal -9.238795e-01 3.826834e-01 0.000000e+00
    outer loop
      vertex   -4.902113e+00 -1.038197e+01 -1.227266e-15
      vertex   -4.902113e+00 -1.038197e+01 4.000000e+00
      vertex   -4.782013e+00 -1.009202e+01 4.000000e+00
    endloop
  endfacet
  facet normal -9.238795e-01 3.826834e-01 0.000000e+00
    outer loop
      vertex   -4.902113e+00 -1.038197e+01 -1.227266e-15
      vertex   -4.782013e+00 -1.009202e+01 4.000000e+00
      vertex   -4.782013e+00 -1.009202e+01 -1.200598e-15
    endloop
  endfacet
  facet normal -8.526402e-01 5.224986e-01 0.000000e+00
    outer loop
      vertex   -4.782013e+00 -1.009202e+01 -1.200598e-15
      vertex   -4.782013e+00 -1.009202e+01 4.000000e+00
      vertex   -4.618034e+00 -9.824430e+00 4.000000e+00
    endloop
  endfacet
  facet normal -8.526402e-01 5.224986e-01 0.000000e+00
    outer loop
      vertex   -4.782013e+00 -1.009202e+01 -1.200598e-15
      vertex   -4.618034e+00 -9.824430e+00 4.000000e+00
      vertex   -4.618034e+00 -9.824430e+00 -1.164187e-15
    endloop
  endfacet
  facet normal -7.604060e-01 6.494480e-01 0.000000e+00
    outer loop
      vertex   -4.618034e+00 -9.824430e+00 -1.164187e-15
      vertex   -4.618034e+00 -9.824430e+00 4.000000e+00
      vertex   -4.414214e+00 -9.585787e+00 4.000000e+00
    endloop
  endfacet
  facet normal -7.604060e-01 6.494480e-01 0.000000e+00
    outer loop
      vertex   -4.618034e+00 -9.824430e+00 -1.164187e-15
      vertex   -4.414214e+00 -9.585787e+00 4.000000e+00
      vertex   -4.414214e+00 -9.585787e+00 -1.118930e-15
    endloop
  endfacet
  facet normal -6.494480e-01 7.604060e-01 0.000000e+00
    outer loop
      vertex   -4.414214e+00 -9.585787e+00 -1.118930e-15
      vertex   -4.414214e+00 -9.585787e+00 4.000000e+00
      vertex   -4.175571e+00 -9.381966e+00 4.000000e+00
    endloop
  endfacet
  facet normal -6.494480e-01 7.604060e-01 0.000000e+00
    outer loop
      vertex   -4.414214e+00 -9.585787e+00 -1.118930e-15
      vertex   -4.175571e+00 -9.381966e+00 4.000000e+00
      vertex   -4.175571e+00 -9.381966e+00 -1.065941e-15
    endloop
  endfacet
  facet normal -5.224986e-01 8.526402e-01 0.000000e+00
    outer loop
      vertex   -4.175571e+00 -9.381966e+00 -1.065941e-15
      vertex   -4.175571e+00 -9.381966e+00 4.000000e+00
      vertex   -3.907981e+00 -9.217987e+00 4.000000e+00
    endloop
  endfacet
  facet normal -5.224986e-01 8.526402e-01 0.000000e+00
    outer loop
      vertex   -4.175571e+00 -9.381966e+00 -1.065941e-15
      vertex   -3.907981e+00 -9.217987e+00 4.000000e+00
      vertex   -3.907981e+00 -9.217987e+00 -1.006524e-15
    endloop
  endfacet
  facet normal -3.826834e-01 9.238795e-01 0.000000e+00
    outer loop
      vertex   -3.907981e+00 -9.217987e+00 -1.006524e-15
      vertex   -3.907981e+00 -9.217987e+00 4.000000e+00
      vertex   -3.618034e+00 -9.097887e+00 4.000000e+00
    endloop
  endfacet
  facet normal -3.826834e-01 9.238795e-01 0.000000e+00
    outer loop
      vertex   -3.907981e+00 -9.217987e+00 -1.006524e-15
      vertex   -3.618034e+00 -9.097887e+00 4.000000e+00
      vertex   -3.618034e+00 -9.097887e+00 -9.421428e-16
    endloop
  endfacet
  facet normal -2.334454e-01 9.723699e-01 0.000000e+00
    outer loop
      vertex   -3.618034e+00 -9.097887e+00 -9.421428e-16
      vertex   -3.618034e+00 -9.097887e+00 4.000000e+00
      vertex   -3.312869e+00 -9.024623e+00 4.000000e+00
    endloop
  endfacet
  facet normal -2.334454e-01 9.723699e-01 0.000000e+00
    outer loop
      vertex   -3.618034e+00 -9.097887e+00 -9.421428e-16
      vertex   -3.312869e+00 -9.024623e+00 4.000000e+00
      vertex   -3.312869e+00 -9.024623e+00 -8.743826e-16
    endloop
  endfacet
  facet normal -7.845910e-02 9.969173e-01 0.000000e+00
    outer loop
      vertex   -3.312869e+00 -9.024623e+00 -8.743826e-16
      vertex   -3.312869e+00 -9.024623e+00 4.000000e+00
      vertex   -3.000000e+00 -9.000000e+00 -8.049117e-16
    endloop
  endfacet
  facet normal -7.845910e-02 9.969173e-01 0.000000e+00
    outer loop
      vertex   -3.000000e+00 -9.000000e+00 -8.049117e-16
      vertex   -3.312869e+00 -9.024623e+00 4.000000e+00
      vertex   -3.000000e+00 -9.000000e+00 4.000000e+00
    endloop
  endfacet
  facet normal -1.000000e+00 0.000000e+00 0.000000e+00
    outer loop
      vertex   -5.000000e+00 -1.100000e+01 -1.249001e-15
      vertex   -5.000000e+00 -7.300000e+01 -1.249001e-15
      vertex   -5.000000e+00 -1.100000e+01 4.000000e+00
    endloop
  endfacet
  facet normal -1.000000e+00 -0.000000e+00 0.000000e+00
    outer loop
      vertex   -5.000000e+00 -1.100000e+01 4.000000e+00
      vertex   -5.000000e+00 -7.300000e+01 -1.249001e-15
      vertex   -5.000000e+00 -7.300000e+01 4.000000e+00
    endloop
  endfacet
  facet normal 2.220446e-16 -3.156188e-31 -1.000000e+00
    outer loop
      vertex   -4.975377e+00 -1.068713e+01 -1.243533e-15
      vertex   -4.902113e+00 -1.038197e+01 -1.227266e-15
      vertex   -5.000000e+00 -1.100000e+01 -1.249001e-15
    endloop
  endfacet
  facet normal 2.220446e-16 9.410388e-31 -1.000000e+00
    outer loop
      vertex   -5.000000e+00 -1.100000e+01 -1.249001e-15
      vertex   -4.902113e+00 -1.038197e+01 -1.227266e-15
      vertex   -4.782013e+00 -1.009202e+01 -1.200598e-15
    endloop
  endfacet
  facet normal 2.220446e-16 0.000000e+00 -1.000000e+00
    outer loop
      vertex   -5.000000e+00 -1.100000e+01 -1.249001e-15
      vertex   -4.782013e+00 -1.009202e+01 -1.200598e-15
      vertex   -4.618034e+00 -9.824430e+00 -1.164187e-15
    endloop
  endfacet
  facet normal 2.220446e-16 0.000000e+00 -1.000000e+00
    outer loop
      vertex   -4.618034e+00 -9.824430e+00 -1.164187e-15
      vertex   -4.414214e+00 -9.585787e+00 -1.118930e-15
      vertex   -5.000000e+00 -1.100000e+01 -1.249001e-15
    endloop
  endfacet
  facet normal 2.220446e-16 0.000000e+00 -1.000000e+00
    outer loop
      vertex   -5.000000e+00 -1.100000e+01 -1.249001e-15
      vertex   -4.414214e+00 -9.585787e+00 -1.118930e-15
      vertex   -4.175571e+00 -9.381966e+00 -1.065941e-15
    endloop
  endfacet
  facet normal 2.220446e-16 -4.967142e-31 -1.000000e+00
    outer loop
      vertex   -5.000000e+00 -1.100000e+01 -1.249001e-15
      vertex   -4.175571e+00 -9.381966e+00 -1.065941e-15
      vertex   -3.907981e+00 -9.217987e+00 -1.006524e-15
    endloop
  endfacet
  facet normal 2.220446e-16 4.156203e-31 -1.000000e+00
    outer loop
      vertex   -3.907981e+00 -9.217987e+00 -1.006524e-15
      vertex   -3.618034e+00 -9.097887e+00 -9.421428e-16
      vertex   -5.000000e+00 -1.100000e+01 -1.249001e-15
    endloop
  endfacet
  facet normal 2.220446e-16 6.173129e-31 -1.000000e+00
    outer loop
      vertex   -5.000000e+00 -1.100000e+01 -1.249001e-15
      vertex   -3.618034e+00 -9.097887e+00 -9.421428e-16
      vertex   -3.312869e+00 -9.024623e+00 -8.743826e-16
    endloop
  endfacet
  facet normal 2.220446e-16 -3.420958e-31 -1.000000e+00
    outer loop
      vertex   -5.000000e+00 -1.100000e+01 -1.249001e-15
      vertex   -3.312869e+00 -9.024623e+00 -8.743826e-16
      vertex   -3.000000e+00 -9.000000e+00 -8.049117e-16
    endloop
  endfacet
  facet normal 2.220446e-16 0.000000e+00 -1.000000e+00
    outer loop
      vertex   -3.000000e+00 -9.000000e+00 -8.049117e-16
      vertex   -2.000000e+00 -9.000000e+00 -5.828671e-16
      vertex   -5.000000e+00 -1.100000e+01 -1.249001e-15
    endloop
  endfacet
  facet normal 2.220446e-16 0.000000e+00 -1.000000e+00
    outer loop
      vertex   -5.000000e+00 -1.100000e+01 -1.249001e-15
      vertex   -2.000000e+00 -9.000000e+00 -5.828671e-16
      vertex   -2.000000e+00 -7.200000e+01 -5.828671e-16
    endloop
  endfacet
  facet normal 2.220446e-16 0.000000e+00 -1.000000e+00
    outer loop
      vertex   -5.000000e+00 -1.100000e+01 -1.249001e-15
      vertex   -2.000000e+00 -7.200000e+01 -5.828671e-16
      vertex   -5.000000e+00 -7.300000e+01 -1.249001e-15
    endloop
  endfacet
  facet normal 2.220446e-16 -4.594908e-32 -1.000000e+00
    outer loop
      vertex   -5.000000e+00 -7.300000e+01 -1.249001e-15
      vertex   -2.000000e+00 -7.200000e+01 -5.828671e-16
      vertex   -3.907981e+00 -7.478201e+01 -1.006524e-15
    endloop
  endfacet
  facet normal 2.220446e-16 3.311428e-31 -1.000000e+00
    outer loop
      vertex   -5.000000e+00 -7.300000e+01 -1.249001e-15
      vertex   -3.907981e+00 -7.478201e+01 -1.006524e-15
      vertex   -4.175571e+00 -7.461803e+01 -1.065941e-15
    endloop
  endfacet
  facet normal 2.220446e-16 -9.391201e-32 -1.000000e+00
    outer loop
      vertex   1.200000e+01 -7.200000e+01 2.525757e-15
      vertex   1.000000e+01 -7.500000e+01 2.081668e-15
      vertex   -2.000000e+00 -7.200000e+01 -5.828671e-16
    endloop
  endfacet
  facet normal 2.220446e-16 2.022720e-32 -1.000000e+00
    outer loop
      vertex   -2.000000e+00 -7.200000e+01 -5.828671e-16
      vertex   1.000000e+01 -7.500000e+01 2.081668e-15
      vertex   -3.000000e+00 -7.500000e+01 -8.049117e-16
    endloop
  endfacet
  facet normal 2.220446e-16 0.000000e+00 -1.000000e+00
    outer loop
      vertex   -2.000000e+00 -7.200000e+01 -5.828671e-16
      vertex   -3.000000e+00 -7.500000e+01 -8.049117e-16
      vertex   -3.312869e+00 -7.497538e+01 -8.743826e-16
    endloop
  endfacet
  facet normal 2.220446e-16 0.000000e+00 -1.000000e+00
    outer loop
      vertex   1.200000e+01 -7.300000e+01 2.525757e-15
      vertex   1.190211e+01 -7.361803e+01 2.504022e-15
      vertex   1.200000e+01 -7.200000e+01 2.525757e-15
    endloop
  endfacet
  facet normal 2.220446e-16 -5.199450e-31 -1.000000e+00
    outer loop
      vertex   1.200000e+01 -7.200000e+01 2.525757e-15
      vertex   1.190211e+01 -7.361803e+01 2.504022e-15
      vertex   1.178201e+01 -7.390798e+01 2.477355e-15
    endloop
  endfacet
  facet normal 2.220446e-16 0.000000e+00 -1.000000e+00
    outer loop
      vertex   1.200000e+01 -7.200000e+01 2.525757e-15
      vertex   1.178201e+01 -7.390798e+01 2.477355e-15
      vertex   1.161803e+01 -7.417557e+01 2.440944e-15
    endloop
  endfacet
  facet normal 2.220446e-16 3.137438e-30 -1.000000e+00
    outer loop
      vertex   1.200000e+01 -7.300000e+01 2.525757e-15
      vertex   1.197538e+01 -7.331287e+01 2.520290e-15
      vertex   1.190211e+01 -7.361803e+01 2.504022e-15
    endloop
  endfacet
  facet normal 2.220446e-16 0.000000e+00 -1.000000e+00
    outer loop
      vertex   1.161803e+01 -7.417557e+01 2.440944e-15
      vertex   1.141421e+01 -7.441421e+01 2.395687e-15
      vertex   1.200000e+01 -7.200000e+01 2.525757e-15
    endloop
  endfacet
  facet normal 2.220446e-16 4.857624e-31 -1.000000e+00
    outer loop
      vertex   1.200000e+01 -7.200000e+01 2.525757e-15
      vertex   1.141421e+01 -7.441421e+01 2.395687e-15
      vertex   1.117557e+01 -7.461803e+01 2.342697e-15
    endloop
  endfacet
  facet normal 2.220446e-16 -1.308096e-30 -1.000000e+00
    outer loop
      vertex   1.200000e+01 -7.200000e+01 2.525757e-15
      vertex   1.117557e+01 -7.461803e+01 2.342697e-15
      vertex   1.090798e+01 -7.478201e+01 2.283280e-15
    endloop
  endfacet
  facet normal 2.220446e-16 2.080222e-30 -1.000000e+00
    outer loop
      vertex   1.090798e+01 -7.478201e+01 2.283280e-15
      vertex   1.061803e+01 -7.490211e+01 2.218899e-15
      vertex   1.200000e+01 -7.200000e+01 2.525757e-15
    endloop
  endfacet
  facet normal 2.220446e-16 -2.388581e-30 -1.000000e+00
    outer loop
      vertex   1.200000e+01 -7.200000e+01 2.525757e-15
      vertex   1.061803e+01 -7.490211e+01 2.218899e-15
      vertex   1.031287e+01 -7.497538e+01 2.151139e-15
    endloop
  endfacet
  facet normal 2.220446e-16 1.663122e-30 -1.000000e+00
    outer loop
      vertex   1.200000e+01 -7.200000e+01 2.525757e-15
      vertex   1.031287e+01 -7.497538e+01 2.151139e-15
      vertex   1.000000e+01 -7.500000e+01 2.081668e-15
    endloop
  endfacet
  facet normal 2.220446e-16 1.350229e-31 -1.000000e+00
    outer loop
      vertex   -3.312869e+00 -7.497538e+01 -8.743826e-16
      vertex   -3.618034e+00 -7.490211e+01 -9.421428e-16
      vertex   -2.000000e+00 -7.200000e+01 -5.828671e-16
    endloop
  endfacet
  facet normal 2.220446e-16 0.000000e+00 -1.000000e+00
    outer loop
      vertex   -2.000000e+00 -7.200000e+01 -5.828671e-16
      vertex   -3.618034e+00 -7.490211e+01 -9.421428e-16
      vertex   -3.907981e+00 -7.478201e+01 -1.006524e-15
    endloop
  endfacet
  facet normal 2.220446e-16 0.000000e+00 -1.000000e+00
    outer loop
      vertex   -4.175571e+00 -7.461803e+01 -1.065941e-15
      vertex   -4.414214e+00 -7.441421e+01 -1.118930e-15
      vertex   -5.000000e+00 -7.300000e+01 -1.249001e-15
    endloop
  endfacet
  facet normal 2.220446e-16 0.000000e+00 -1.000000e+00
    outer loop
      vertex   -5.000000e+00 -7.300000e+01 -1.249001e-15
      vertex   -4.414214e+00 -7.441421e+01 -1.118930e-15
      vertex   -4.618034e+00 -7.417557e+01 -1.164187e-15
    endloop
  endfacet
  facet normal 2.220446e-16 0.000000e+00 -1.000000e+00
    outer loop
      vertex   -5.000000e+00 -7.300000e+01 -1.249001e-15
      vertex   -4.618034e+00 -7.417557e+01 -1.164187e-15
      vertex   -4.782013e+00 -7.390798e+01 -1.200598e-15
    endloop
  endfacet
  facet normal 2.220446e-16 -9.410388e-31 -1.000000e+00
    outer loop
      vertex   -4.782013e+00 -7.390798e+01 -1.200598e-15
      vertex   -4.902113e+00 -7.361803e+01 -1.227266e-15
      vertex   -5.000000e+00 -7.300000e+01 -1.249001e-15
    endloop
  endfacet
  facet normal 2.220446e-16 3.124938e-31 -1.000000e+00
    outer loop
      vertex   -5.000000e+00 -7.300000e+01 -1.249001e-15
      vertex   -4.902113e+00 -7.361803e+01 -1.227266e-15
      vertex   -4.975377e+00 -7.331287e+01 -1.243533e-15
    endloop
  endfacet
  facet normal -7.845910e-02 -9.969173e-01 0.000000e+00
    outer loop
      vertex   -3.000000e+00 -7.500000e+01 -8.049117e-16
      vertex   -3.000000e+00 -7.500000e+01 4.000000e+00
      vertex   -3.312869e+00 -7.497538e+01 -8.743826e-16
    endloop
  endfacet
  facet normal -7.845910e-02 -9.969173e-01 -3.524340e-15
    outer loop
      vertex   -3.312869e+00 -7.497538e+01 -8.743826e-16
      vertex   -3.000000e+00 -7.500000e+01 4.000000e+00
      vertex   -3.312869e+00 -7.497538e+01 4.000000e+00
    endloop
  endfacet
  facet normal -2.334454e-01 -9.723699e-01 -3.402717e-15
    outer loop
      vertex   -3.312869e+00 -7.497538e+01 -8.743826e-16
      vertex   -3.312869e+00 -7.497538e+01 4.000000e+00
      vertex   -3.618034e+00 -7.490211e+01 4.000000e+00
    endloop
  endfacet
  facet normal -2.334454e-01 -9.723699e-01 0.000000e+00
    outer loop
      vertex   -3.312869e+00 -7.497538e+01 -8.743826e-16
      vertex   -3.618034e+00 -7.490211e+01 4.000000e+00
      vertex   -3.618034e+00 -7.490211e+01 -9.421428e-16
    endloop
  endfacet
  facet normal -3.826834e-01 -9.238795e-01 0.000000e+00
    outer loop
      vertex   -3.618034e+00 -7.490211e+01 -9.421428e-16
      vertex   -3.618034e+00 -7.490211e+01 4.000000e+00
      vertex   -3.907981e+00 -7.478201e+01 4.000000e+00
    endloop
  endfacet
  facet normal -3.826834e-01 -9.238795e-01 0.000000e+00
    outer loop
      vertex   -3.618034e+00 -7.490211e+01 -9.421428e-16
      vertex   -3.907981e+00 -7.478201e+01 4.000000e+00
      vertex   -3.907981e+00 -7.478201e+01 -1.006524e-15
    endloop
  endfacet
  facet normal -5.224986e-01 -8.526402e-01 0.000000e+00
    outer loop
      vertex   -3.907981e+00 -7.478201e+01 -1.006524e-15
      vertex   -3.907981e+00 -7.478201e+01 4.000000e+00
      vertex   -4.175571e+00 -7.461803e+01 4.000000e+00
    endloop
  endfacet
  facet normal -5.224986e-01 -8.526402e-01 0.000000e+00
    outer loop
      vertex   -3.907981e+00 -7.478201e+01 -1.006524e-15
      vertex   -4.175571e+00 -7.461803e+01 4.000000e+00
      vertex   -4.175571e+00 -7.461803e+01 -1.065941e-15
    endloop
  endfacet
  facet normal -6.494480e-01 -7.604060e-01 0.000000e+00
    outer loop
      vertex   -4.175571e+00 -7.461803e+01 -1.065941e-15
      vertex   -4.175571e+00 -7.461803e+01 4.000000e+00
      vertex   -4.414214e+00 -7.441421e+01 4.000000e+00
    endloop
  endfacet
  facet normal -6.494480e-01 -7.604060e-01 0.000000e+00
    outer loop
      vertex   -4.175571e+00 -7.461803e+01 -1.065941e-15
      vertex   -4.414214e+00 -7.441421e+01 4.000000e+00
      vertex   -4.414214e+00 -7.441421e+01 -1.118930e-15
    endloop
  endfacet
  facet normal -7.604060e-01 -6.494480e-01 0.000000e+00
    outer loop
      vertex   -4.414214e+00 -7.441421e+01 -1.118930e-15
      vertex   -4.414214e+00 -7.441421e+01 4.000000e+00
      vertex   -4.618034e+00 -7.417557e+01 4.000000e+00
    endloop
  endfacet
  facet normal -7.604060e-01 -6.494480e-01 0.000000e+00
    outer loop
      vertex   -4.414214e+00 -7.441421e+01 -1.118930e-15
      vertex   -4.618034e+00 -7.417557e+01 4.000000e+00
      vertex   -4.618034e+00 -7.417557e+01 -1.164187e-15
    endloop
  endfacet
  facet normal -8.526402e-01 -5.224986e-01 0.000000e+00
    outer loop
      vertex   -4.618034e+00 -7.417557e+01 -1.164187e-15
      vertex   -4.618034e+00 -7.417557e+01 4.000000e+00
      vertex   -4.782013e+00 -7.390798e+01 4.000000e+00
    endloop
  endfacet
  facet normal -8.526402e-01 -5.224986e-01 0.000000e+00
    outer loop
      vertex   -4.618034e+00 -7.417557e+01 -1.164187e-15
      vertex   -4.782013e+00 -7.390798e+01 4.000000e+00
      vertex   -4.782013e+00 -7.390798e+01 -1.200598e-15
    endloop
  endfacet
  facet normal -9.238795e-01 -3.826834e-01 0.000000e+00
    outer loop
      vertex   -4.782013e+00 -7.390798e+01 -1.200598e-15
      vertex   -4.782013e+00 -7.390798e+01 4.000000e+00
      vertex   -4.902113e+00 -7.361803e+01 4.000000e+00
    endloop
  endfacet
  facet normal -9.238795e-01 -3.826834e-01 2.045167e-16
    outer loop
      vertex   -4.782013e+00 -7.390798e+01 -1.200598e-15
      vertex   -4.902113e+00 -7.361803e+01 4.000000e+00
      vertex   -4.902113e+00 -7.361803e+01 -1.227266e-15
    endloop
  endfacet
  facet normal -9.723699e-01 -2.334454e-01 2.159095e-16
    outer loop
      vertex   -4.902113e+00 -7.361803e+01 -1.227266e-15
      vertex   -4.902113e+00 -7.361803e+01 4.000000e+00
      vertex   -4.975377e+00 -7.331287e+01 4.000000e+00
    endloop
  endfacet
  facet normal -9.723699e-01 -2.334454e-01 0.000000e+00
    outer loop
      vertex   -4.902113e+00 -7.361803e+01 -1.227266e-15
      vertex   -4.975377e+00 -7.331287e+01 4.000000e+00
      vertex   -4.975377e+00 -7.331287e+01 -1.243533e-15
    endloop
  endfacet
  facet normal -9.969173e-01 -7.845910e-02 0.000000e+00
    outer loop
      vertex   -4.975377e+00 -7.331287e+01 -1.243533e-15
      vertex   -4.975377e+00 -7.331287e+01 4.000000e+00
      vertex   -5.000000e+00 -7.300000e+01 -1.249001e-15
    endloop
  endfacet
  facet normal -9.969173e-01 -7.845910e-02 0.000000e+00
    outer loop
      vertex   -5.000000e+00 -7.300000e+01 -1.249001e-15
      vertex   -4.975377e+00 -7.331287e+01 4.000000e+00
      vertex   -5.000000e+00 -7.300000e+01 4.000000e+00
    endloop
  endfacet
  facet normal 0.000000e+00 -1.000000e+00 0.000000e+00
    outer loop
      vertex   -3.000000e+00 -7.500000e+01 -8.049117e-16
      vertex   1.000000e+01 -7.500000e+01 2.081668e-15
      vertex   -3.000000e+00 -7.500000e+01 4.000000e+00
    endloop
  endfacet
  facet normal 0.000000e+00 -1.000000e+00 0.000000e+00
    outer loop
      vertex   -3.000000e+00 -7.500000e+01 4.000000e+00
      vertex   1.000000e+01 -7.500000e+01 2.081668e-15
      vertex   1.000000e+01 -7.500000e+01 4.000000e+00
    endloop
  endfacet
  facet normal 9.969173e-01 -7.845910e-02 4.427202e-16
    outer loop
      vertex   1.200000e+01 -7.300000e+01 2.525757e-15
      vertex   1.200000e+01 -7.300000e+01 4.000000e+00
      vertex   1.197538e+01 -7.331287e+01 2.520290e-15
    endloop
  endfacet
  facet normal 9.969173e-01 -7.845910e-02 0.000000e+00
    outer loop
      vertex   1.197538e+01 -7.331287e+01 2.520290e-15
      vertex   1.200000e+01 -7.300000e+01 4.000000e+00
      vertex   1.197538e+01 -7.331287e+01 4.000000e+00
    endloop
  endfacet
  facet normal 9.723699e-01 -2.334454e-01 0.000000e+00
    outer loop
      vertex   1.197538e+01 -7.331287e+01 2.520290e-15
      vertex   1.197538e+01 -7.331287e+01 4.000000e+00
      vertex   1.190211e+01 -7.361803e+01 4.000000e+00
    endloop
  endfacet
  facet normal 9.723699e-01 -2.334454e-01 0.000000e+00
    outer loop
      vertex   1.197538e+01 -7.331287e+01 2.520290e-15
      vertex   1.190211e+01 -7.361803e+01 4.000000e+00
      vertex   1.190211e+01 -7.361803e+01 2.504022e-15
    endloop
  endfacet
  facet normal 9.238795e-01 -3.826834e-01 0.000000e+00
    outer loop
      vertex   1.190211e+01 -7.361803e+01 2.504022e-15
      vertex   1.190211e+01 -7.361803e+01 4.000000e+00
      vertex   1.178201e+01 -7.390798e+01 4.000000e+00
    endloop
  endfacet
  facet normal 9.238795e-01 -3.826834e-01 0.000000e+00
    outer loop
      vertex   1.190211e+01 -7.361803e+01 2.504022e-15
      vertex   1.178201e+01 -7.390798e+01 4.000000e+00
      vertex   1.178201e+01 -7.390798e+01 2.477355e-15
    endloop
  endfacet
  facet normal 8.526402e-01 -5.224986e-01 0.000000e+00
    outer loop
      vertex   1.178201e+01 -7.390798e+01 2.477355e-15
      vertex   1.178201e+01 -7.390798e+01 4.000000e+00
      vertex   1.161803e+01 -7.417557e+01 4.000000e+00
    endloop
  endfacet
  facet normal 8.526402e-01 -5.224986e-01 0.000000e+00
    outer loop
      vertex   1.178201e+01 -7.390798e+01 2.477355e-15
      vertex   1.161803e+01 -7.417557e+01 4.000000e+00
      vertex   1.161803e+01 -7.417557e+01 2.440944e-15
    endloop
  endfacet
  facet normal 7.604060e-01 -6.494480e-01 0.000000e+00
    outer loop
      vertex   1.161803e+01 -7.417557e+01 2.440944e-15
      vertex   1.161803e+01 -7.417557e+01 4.000000e+00
      vertex   1.141421e+01 -7.441421e+01 4.000000e+00
    endloop
  endfacet
  facet normal 7.604060e-01 -6.494480e-01 0.000000e+00
    outer loop
      vertex   1.161803e+01 -7.417557e+01 2.440944e-15
      vertex   1.141421e+01 -7.441421e+01 4.000000e+00
      vertex   1.141421e+01 -7.441421e+01 2.395687e-15
    endloop
  endfacet
  facet normal 6.494480e-01 -7.604060e-01 0.000000e+00
    outer loop
      vertex   1.141421e+01 -7.441421e+01 2.395687e-15
      vertex   1.141421e+01 -7.441421e+01 4.000000e+00
      vertex   1.117557e+01 -7.461803e+01 4.000000e+00
    endloop
  endfacet
  facet normal 6.494480e-01 -7.604060e-01 0.000000e+00
    outer loop
      vertex   1.141421e+01 -7.441421e+01 2.395687e-15
      vertex   1.117557e+01 -7.461803e+01 4.000000e+00
      vertex   1.117557e+01 -7.461803e+01 2.342697e-15
    endloop
  endfacet
  facet normal 5.224986e-01 -8.526402e-01 0.000000e+00
    outer loop
      vertex   1.117557e+01 -7.461803e+01 2.342697e-15
      vertex   1.117557e+01 -7.461803e+01 4.000000e+00
      vertex   1.090798e+01 -7.478201e+01 4.000000e+00
    endloop
  endfacet
  facet normal 5.224986e-01 -8.526402e-01 0.000000e+00
    outer loop
      vertex   1.117557e+01 -7.461803e+01 2.342697e-15
      vertex   1.090798e+01 -7.478201e+01 4.000000e+00
      vertex   1.090798e+01 -7.478201e+01 2.283280e-15
    endloop
  endfacet
  facet normal 3.826834e-01 -9.238795e-01 0.000000e+00
    outer loop
      vertex   1.090798e+01 -7.478201e+01 2.283280e-15
      vertex   1.090798e+01 -7.478201e+01 4.000000e+00
      vertex   1.061803e+01 -7.490211e+01 4.000000e+00
    endloop
  endfacet
  facet normal 3.826834e-01 -9.238795e-01 0.000000e+00
    outer loop
      vertex   1.090798e+01 -7.478201e+01 2.283280e-15
      vertex   1.061803e+01 -7.490211e+01 4.000000e+00
      vertex   1.061803e+01 -7.490211e+01 2.218899e-15
    endloop
  endfacet
  facet normal 2.334454e-01 -9.723699e-01 0.000000e+00
    outer loop
      vertex   1.061803e+01 -7.490211e+01 2.218899e-15
      vertex   1.061803e+01 -7.490211e+01 4.000000e+00
      vertex   1.031287e+01 -7.497538e+01 4.000000e+00
    endloop
  endfacet
  facet normal 2.334454e-01 -9.723699e-01 0.000000e+00
    outer loop
      vertex   1.061803e+01 -7.490211e+01 2.218899e-15
      vertex   1.031287e+01 -7.497538e+01 4.000000e+00
      vertex   1.031287e+01 -7.497538e+01 2.151139e-15
    endloop
  endfacet
  facet normal 7.845910e-02 -9.969173e-01 0.000000e+00
    outer loop
      vertex   1.031287e+01 -7.497538e+01 2.151139e-15
      vertex   1.031287e+01 -7.497538e+01 4.000000e+00
      vertex   1.000000e+01 -7.500000e+01 2.081668e-15
    endloop
  endfacet
  facet normal 7.845910e-02 -9.969173e-01 0.000000e+00
    outer loop
      vertex   1.000000e+01 -7.500000e+01 2.081668e-15
      vertex   1.031287e+01 -7.497538e+01 4.000000e+00
      vertex   1.000000e+01 -7.500000e+01 4.000000e+00
    endloop
  endfacet
  facet normal 9.969173e-01 -7.845910e-02 0.000000e+00
    outer loop
      vertex   1.500000e+01 -7.000000e+01 3.191891e-15
      vertex   1.500000e+01 -7.000000e+01 4.000000e+00
      vertex   1.497538e+01 -7.031287e+01 3.186424e-15
    endloop
  endfacet
  facet normal 9.969173e-01 -7.845910e-02 4.427202e-16
    outer loop
      vertex   1.497538e+01 -7.031287e+01 3.186424e-15
      vertex   1.500000e+01 -7.000000e+01 4.000000e+00
      vertex   1.497538e+01 -7.031287e+01 4.000000e+00
    endloop
  endfacet
  facet normal 9.723699e-01 -2.334454e-01 4.318190e-16
    outer loop
      vertex   1.497538e+01 -7.031287e+01 3.186424e-15
      vertex   1.497538e+01 -7.031287e+01 4.000000e+00
      vertex   1.490211e+01 -7.061803e+01 4.000000e+00
    endloop
  endfacet
  facet normal 9.723699e-01 -2.334454e-01 0.000000e+00
    outer loop
      vertex   1.497538e+01 -7.031287e+01 3.186424e-15
      vertex   1.490211e+01 -7.061803e+01 4.000000e+00
      vertex   1.490211e+01 -7.061803e+01 3.170156e-15
    endloop
  endfacet
  facet normal 9.238795e-01 -3.826834e-01 0.000000e+00
    outer loop
      vertex   1.490211e+01 -7.061803e+01 3.170156e-15
      vertex   1.490211e+01 -7.061803e+01 4.000000e+00
      vertex   1.478201e+01 -7.090798e+01 4.000000e+00
    endloop
  endfacet
  facet normal 9.238795e-01 -3.826834e-01 4.090333e-16
    outer loop
      vertex   1.490211e+01 -7.061803e+01 3.170156e-15
      vertex   1.478201e+01 -7.090798e+01 4.000000e+00
      vertex   1.478201e+01 -7.090798e+01 3.143488e-15
    endloop
  endfacet
  facet normal 8.526402e-01 -5.224986e-01 3.786483e-16
    outer loop
      vertex   1.478201e+01 -7.090798e+01 3.143488e-15
      vertex   1.478201e+01 -7.090798e+01 4.000000e+00
      vertex   1.461803e+01 -7.117557e+01 4.000000e+00
    endloop
  endfacet
  facet normal 8.526402e-01 -5.224986e-01 3.813959e-16
    outer loop
      vertex   1.478201e+01 -7.090798e+01 3.143488e-15
      vertex   1.461803e+01 -7.117557e+01 4.000000e+00
      vertex   1.461803e+01 -7.117557e+01 3.107078e-15
    endloop
  endfacet
  facet normal 7.604060e-01 -6.494480e-01 3.376881e-16
    outer loop
      vertex   1.461803e+01 -7.117557e+01 3.107078e-15
      vertex   1.461803e+01 -7.117557e+01 4.000000e+00
      vertex   1.441421e+01 -7.141421e+01 4.000000e+00
    endloop
  endfacet
  facet normal 7.604060e-01 -6.494480e-01 3.371761e-16
    outer loop
      vertex   1.461803e+01 -7.117557e+01 3.107078e-15
      vertex   1.441421e+01 -7.141421e+01 4.000000e+00
      vertex   1.441421e+01 -7.141421e+01 3.061820e-15
    endloop
  endfacet
  facet normal 6.494480e-01 -7.604060e-01 2.884129e-16
    outer loop
      vertex   1.441421e+01 -7.141421e+01 3.061820e-15
      vertex   1.441421e+01 -7.141421e+01 4.000000e+00
      vertex   1.417557e+01 -7.161803e+01 4.000000e+00
    endloop
  endfacet
  facet normal 6.494480e-01 -7.604060e-01 2.874288e-16
    outer loop
      vertex   1.441421e+01 -7.141421e+01 3.061820e-15
      vertex   1.417557e+01 -7.161803e+01 4.000000e+00
      vertex   1.417557e+01 -7.161803e+01 3.008831e-15
    endloop
  endfacet
  facet normal 5.224986e-01 -8.526402e-01 2.320360e-16
    outer loop
      vertex   1.417557e+01 -7.161803e+01 3.008831e-15
      vertex   1.417557e+01 -7.161803e+01 4.000000e+00
      vertex   1.390798e+01 -7.178201e+01 4.000000e+00
    endloop
  endfacet
  facet normal 5.224986e-01 -8.526402e-01 2.321540e-16
    outer loop
      vertex   1.417557e+01 -7.161803e+01 3.008831e-15
      vertex   1.390798e+01 -7.178201e+01 4.000000e+00
      vertex   1.390798e+01 -7.178201e+01 2.949414e-15
    endloop
  endfacet
  facet normal 3.826834e-01 -9.238795e-01 1.699456e-16
    outer loop
      vertex   1.390798e+01 -7.178201e+01 2.949414e-15
      vertex   1.390798e+01 -7.178201e+01 4.000000e+00
      vertex   1.361803e+01 -7.190211e+01 4.000000e+00
    endloop
  endfacet
  facet normal 3.826834e-01 -9.238795e-01 3.427036e-16
    outer loop
      vertex   1.390798e+01 -7.178201e+01 2.949414e-15
      vertex   1.361803e+01 -7.190211e+01 4.000000e+00
      vertex   1.361803e+01 -7.190211e+01 2.885033e-15
    endloop
  endfacet
  facet normal 2.334454e-01 -9.723699e-01 2.073411e-16
    outer loop
      vertex   1.361803e+01 -7.190211e+01 2.885033e-15
      vertex   1.361803e+01 -7.190211e+01 4.000000e+00
      vertex   1.331287e+01 -7.197538e+01 4.000000e+00
    endloop
  endfacet
  facet normal 2.334454e-01 -9.723699e-01 1.022583e-16
    outer loop
      vertex   1.361803e+01 -7.190211e+01 2.885033e-15
      vertex   1.331287e+01 -7.197538e+01 4.000000e+00
      vertex   1.331287e+01 -7.197538e+01 2.817273e-15
    endloop
  endfacet
  facet normal 7.845910e-02 -9.969173e-01 3.484284e-17
    outer loop
      vertex   1.331287e+01 -7.197538e+01 2.817273e-15
      vertex   1.331287e+01 -7.197538e+01 4.000000e+00
      vertex   1.300000e+01 -7.200000e+01 2.747802e-15
    endloop
  endfacet
  facet normal 7.845910e-02 -9.969173e-01 3.484284e-17
    outer loop
      vertex   1.300000e+01 -7.200000e+01 2.747802e-15
      vertex   1.331287e+01 -7.197538e+01 4.000000e+00
      vertex   1.300000e+01 -7.200000e+01 4.000000e+00
    endloop
  endfacet
  facet normal 1.000000e+00 0.000000e+00 0.000000e+00
    outer loop
      vertex   1.500000e+01 -7.000000e+01 3.191891e-15
      vertex   1.500000e+01 -8.000000e+00 3.191891e-15
      vertex   1.500000e+01 -7.000000e+01 4.000000e+00
    endloop
  endfacet
  facet normal 1.000000e+00 -0.000000e+00 0.000000e+00
    outer loop
      vertex   1.500000e+01 -7.000000e+01 4.000000e+00
      vertex   1.500000e+01 -8.000000e+00 3.191891e-15
      vertex   1.500000e+01 -8.000000e+00 4.000000e+00
    endloop
  endfacet
  facet normal 2.220446e-16 0.000000e+00 -1.000000e+00
    outer loop
      vertex   1.497538e+01 -7.031287e+01 3.186424e-15
      vertex   1.490211e+01 -7.061803e+01 3.170156e-15
      vertex   1.500000e+01 -7.000000e+01 3.191891e-15
    endloop
  endfacet
  facet normal 2.220446e-16 -8.402132e-31 -1.000000e+00
    outer loop
      vertex   1.500000e+01 -7.000000e+01 3.191891e-15
      vertex   1.490211e+01 -7.061803e+01 3.170156e-15
      vertex   1.478201e+01 -7.090798e+01 3.143488e-15
    endloop
  endfacet
  facet normal 2.220446e-16 1.667346e-30 -1.000000e+00
    outer loop
      vertex   1.500000e+01 -7.000000e+01 3.191891e-15
      vertex   1.478201e+01 -7.090798e+01 3.143488e-15
      vertex   1.461803e+01 -7.117557e+01 3.107078e-15
    endloop
  endfacet
  facet normal 2.220446e-16 0.000000e+00 -1.000000e+00
    outer loop
      vertex   1.461803e+01 -7.117557e+01 3.107078e-15
      vertex   1.441421e+01 -7.141421e+01 3.061820e-15
      vertex   1.500000e+01 -7.000000e+01 3.191891e-15
    endloop
  endfacet
  facet normal 2.220446e-16 -1.073802e-30 -1.000000e+00
    outer loop
      vertex   1.500000e+01 -7.000000e+01 3.191891e-15
      vertex   1.441421e+01 -7.141421e+01 3.061820e-15
      vertex   1.417557e+01 -7.161803e+01 3.008831e-15
    endloop
  endfacet
  facet normal 2.220446e-16 1.490143e-30 -1.000000e+00
    outer loop
      vertex   1.500000e+01 -7.000000e+01 3.191891e-15
      vertex   1.417557e+01 -7.161803e+01 3.008831e-15
      vertex   1.390798e+01 -7.178201e+01 2.949414e-15
    endloop
  endfacet
  facet normal 2.220446e-16 -2.237955e-30 -1.000000e+00
    outer loop
      vertex   1.390798e+01 -7.178201e+01 2.949414e-15
      vertex   1.361803e+01 -7.190211e+01 2.885033e-15
      vertex   1.500000e+01 -7.000000e+01 3.191891e-15
    endloop
  endfacet
  facet normal 2.220446e-16 2.675022e-30 -1.000000e+00
    outer loop
      vertex   1.500000e+01 -7.000000e+01 3.191891e-15
      vertex   1.361803e+01 -7.190211e+01 2.885033e-15
      vertex   1.331287e+01 -7.197538e+01 2.817273e-15
    endloop
  endfacet
  facet normal 2.220446e-16 -1.197335e-30 -1.000000e+00
    outer loop
      vertex   1.500000e+01 -7.000000e+01 3.191891e-15
      vertex   1.331287e+01 -7.197538e+01 2.817273e-15
      vertex   1.300000e+01 -7.200000e+01 2.747802e-15
    endloop
  endfacet
  facet normal 2.220446e-16 5.916457e-31 -1.000000e+00
    outer loop
      vertex   1.300000e+01 -7.200000e+01 2.747802e-15
      vertex   1.200000e+01 -7.200000e+01 2.525757e-15
      vertex   1.500000e+01 -7.000000e+01 3.191891e-15
    endloop
  endfacet
  facet normal 2.220446e-16 0.000000e+00 -1.000000e+00
    outer loop
      vertex   1.500000e+01 -7.000000e+01 3.191891e-15
      vertex   1.200000e+01 -7.200000e+01 2.525757e-15
      vertex   1.200000e+01 -9.000000e+00 2.525757e-15
    endloop
  endfacet
  facet normal 2.220446e-16 0.000000e+00 -1.000000e+00
    outer loop
      vertex   1.500000e+01 -7.000000e+01 3.191891e-15
      vertex   1.200000e+01 -9.000000e+00 2.525757e-15
      vertex   1.500000e+01 -8.000000e+00 3.191891e-15
    endloop
  endfacet
  facet normal 2.220446e-16 0.000000e+00 -1.000000e+00
    outer loop
      vertex   1.500000e+01 -8.000000e+00 3.191891e-15
      vertex   1.200000e+01 -9.000000e+00 2.525757e-15
      vertex   1.390798e+01 -6.217987e+00 2.949414e-15
    endloop
  endfacet
  facet normal 2.220446e-16 -2.897499e-30 -1.000000e+00
    outer loop
      vertex   1.500000e+01 -8.000000e+00 3.191891e-15
      vertex   1.390798e+01 -6.217987e+00 2.949414e-15
      vertex   1.417557e+01 -6.381966e+00 3.008831e-15
    endloop
  endfacet
  facet normal 2.220446e-16 3.756480e-32 -1.000000e+00
    outer loop
      vertex   -2.000000e+00 -9.000000e+00 -5.828671e-16
      vertex   -2.533197e-07 -6.000000e+00 -1.387779e-16
      vertex   1.200000e+01 -9.000000e+00 2.525757e-15
    endloop
  endfacet
  facet normal 2.220446e-16 -1.011360e-31 -1.000000e+00
    outer loop
      vertex   1.200000e+01 -9.000000e+00 2.525757e-15
      vertex   -2.533197e-07 -6.000000e+00 -1.387779e-16
      vertex   1.300000e+01 -6.000000e+00 2.747802e-15
    endloop
  endfacet
  facet normal 2.220446e-16 -5.630450e-31 -1.000000e+00
    outer loop
      vertex   1.200000e+01 -9.000000e+00 2.525757e-15
      vertex   1.300000e+01 -6.000000e+00 2.747802e-15
      vertex   1.331287e+01 -6.024623e+00 2.817273e-15
    endloop
  endfacet
  facet normal 2.220446e-16 0.000000e+00 -1.000000e+00
    outer loop
      vertex   -2.000000e+00 -8.000000e+00 -5.828671e-16
      vertex   -1.902113e+00 -7.381966e+00 -5.611319e-16
      vertex   -2.000000e+00 -9.000000e+00 -5.828671e-16
    endloop
  endfacet
  facet normal 2.220446e-16 -6.035076e-32 -1.000000e+00
    outer loop
      vertex   -2.000000e+00 -9.000000e+00 -5.828671e-16
      vertex   -1.902113e+00 -7.381966e+00 -5.611319e-16
      vertex   -1.782013e+00 -7.092019e+00 -5.344643e-16
    endloop
  endfacet
  facet normal 2.220446e-16 6.053102e-32 -1.000000e+00
    outer loop
      vertex   -2.000000e+00 -9.000000e+00 -5.828671e-16
      vertex   -1.782013e+00 -7.092019e+00 -5.344643e-16
      vertex   -1.618034e+00 -6.824430e+00 -4.980537e-16
    endloop
  endfacet
  facet normal 2.220446e-16 6.249877e-31 -1.000000e+00
    outer loop
      vertex   -2.000000e+00 -8.000000e+00 -5.828671e-16
      vertex   -1.975377e+00 -7.687131e+00 -5.773997e-16
      vertex   -1.902113e+00 -7.381966e+00 -5.611319e-16
    endloop
  endfacet
  facet normal 2.220446e-16 1.662018e-31 -1.000000e+00
    outer loop
      vertex   -1.618034e+00 -6.824430e+00 -4.980537e-16
      vertex   -1.414214e+00 -6.585787e+00 -4.527964e-16
      vertex   -2.000000e+00 -9.000000e+00 -5.828671e-16
    endloop
  endfacet
  facet normal 2.220446e-16 -5.397359e-32 -1.000000e+00
    outer loop
      vertex   -2.000000e+00 -9.000000e+00 -5.828671e-16
      vertex   -1.414214e+00 -6.585787e+00 -4.527964e-16
      vertex   -1.175571e+00 -6.381966e+00 -3.998070e-16
    endloop
  endfacet
  facet normal 2.220446e-16 0.000000e+00 -1.000000e+00
    outer loop
      vertex   -2.000000e+00 -9.000000e+00 -5.828671e-16
      vertex   -1.175571e+00 -6.381966e+00 -3.998070e-16
      vertex   -9.079813e-01 -6.217987e+00 -3.403902e-16
    endloop
  endfacet
  facet normal 2.220446e-16 1.824756e-32 -1.000000e+00
    outer loop
      vertex   -9.079813e-01 -6.217987e+00 -3.403902e-16
      vertex   -6.180342e-01 -6.097887e+00 -2.760090e-16
      vertex   -2.000000e+00 -9.000000e+00 -5.828671e-16
    endloop
  endfacet
  facet normal 2.220446e-16 0.000000e+00 -1.000000e+00
    outer loop
      vertex   -2.000000e+00 -9.000000e+00 -5.828671e-16
      vertex   -6.180342e-01 -6.097887e+00 -2.760090e-16
      vertex   -3.128692e-01 -6.024623e+00 -2.082488e-16
    endloop
  endfacet
  facet normal 2.220446e-16 1.108748e-31 -1.000000e+00
    outer loop
      vertex   -2.000000e+00 -9.000000e+00 -5.828671e-16
      vertex   -3.128692e-01 -6.024623e+00 -2.082488e-16
      vertex   -2.533197e-07 -6.000000e+00 -1.387779e-16
    endloop
  endfacet
  facet normal 2.220446e-16 0.000000e+00 -1.000000e+00
    outer loop
      vertex   1.331287e+01 -6.024623e+00 2.817273e-15
      vertex   1.361803e+01 -6.097887e+00 2.885033e-15
      vertex   1.200000e+01 -9.000000e+00 2.525757e-15
    endloop
  endfacet
  facet normal 2.220446e-16 0.000000e+00 -1.000000e+00
    outer loop
      vertex   1.200000e+01 -9.000000e+00 2.525757e-15
      vertex   1.361803e+01 -6.097887e+00 2.885033e-15
      vertex   1.390798e+01 -6.217987e+00 2.949414e-15
    endloop
  endfacet
  facet normal 2.220446e-16 2.119347e-30 -1.000000e+00
    outer loop
      vertex   1.417557e+01 -6.381966e+00 3.008831e-15
      vertex   1.441421e+01 -6.585787e+00 3.061820e-15
      vertex   1.500000e+01 -8.000000e+00 3.191891e-15
    endloop
  endfacet
  facet normal 2.220446e-16 0.000000e+00 -1.000000e+00
    outer loop
      vertex   1.500000e+01 -8.000000e+00 3.191891e-15
      vertex   1.441421e+01 -6.585787e+00 3.061820e-15
      vertex   1.461803e+01 -6.824430e+00 3.107078e-15
    endloop
  endfacet
  facet normal 2.220446e-16 0.000000e+00 -1.000000e+00
    outer loop
      vertex   1.500000e+01 -8.000000e+00 3.191891e-15
      vertex   1.461803e+01 -6.824430e+00 3.107078e-15
      vertex   1.478201e+01 -7.092019e+00 3.143488e-15
    endloop
  endfacet
  facet normal 2.220446e-16 0.000000e+00 -1.000000e+00
    outer loop
      vertex   1.478201e+01 -7.092019e+00 3.143488e-15
      vertex   1.490211e+01 -7.381966e+00 3.170156e-15
      vertex   1.500000e+01 -8.000000e+00 3.191891e-15
    endloop
  endfacet
  facet normal 2.220446e-16 0.000000e+00 -1.000000e+00
    outer loop
      vertex   1.500000e+01 -8.000000e+00 3.191891e-15
      vertex   1.490211e+01 -7.381966e+00 3.170156e-15
      vertex   1.497538e+01 -7.687131e+00 3.186424e-15
    endloop
  endfacet
  facet normal -9.969173e-01 7.845910e-02 0.000000e+00
    outer loop
      vertex   -2.000000e+00 -8.000000e+00 -5.828671e-16
      vertex   -2.000000e+00 -8.000000e+00 4.000000e+00
      vertex   -1.975377e+00 -7.687131e+00 -5.773997e-16
    endloop
  endfacet
  facet normal -9.969173e-01 7.845910e-02 1.742142e-17
    outer loop
      vertex   -1.975377e+00 -7.687131e+00 -5.773997e-16
      vertex   -2.000000e+00 -8.000000e+00 4.000000e+00
      vertex   -1.975377e+00 -7.687131e+00 4.000000e+00
    endloop
  endfacet
  facet normal -9.723699e-01 2.334454e-01 5.183528e-17
    outer loop
      vertex   -1.975377e+00 -7.687131e+00 -5.773997e-16
      vertex   -1.975377e+00 -7.687131e+00 4.000000e+00
      vertex   -1.902113e+00 -7.381966e+00 4.000000e+00
    endloop
  endfacet
  facet normal -9.723699e-01 2.334454e-01 0.000000e+00
    outer loop
      vertex   -1.975377e+00 -7.687131e+00 -5.773997e-16
      vertex   -1.902113e+00 -7.381966e+00 4.000000e+00
      vertex   -1.902113e+00 -7.381966e+00 -5.611319e-16
    endloop
  endfacet
  facet normal -9.238795e-01 3.826834e-01 0.000000e+00
    outer loop
      vertex   -1.902113e+00 -7.381966e+00 -5.611319e-16
      vertex   -1.902113e+00 -7.381966e+00 4.000000e+00
      vertex   -1.782013e+00 -7.092019e+00 4.000000e+00
    endloop
  endfacet
  facet normal -9.238795e-01 3.826834e-01 -4.974730e-17
    outer loop
      vertex   -1.902113e+00 -7.381966e+00 -5.611319e-16
      vertex   -1.782013e+00 -7.092019e+00 4.000000e+00
      vertex   -1.782013e+00 -7.092019e+00 -5.344643e-16
    endloop
  endfacet
  facet normal -8.526402e-01 5.224986e-01 -4.733104e-17
    outer loop
      vertex   -1.782013e+00 -7.092019e+00 -5.344643e-16
      vertex   -1.782013e+00 -7.092019e+00 4.000000e+00
      vertex   -1.618034e+00 -6.824430e+00 4.000000e+00
    endloop
  endfacet
  facet normal -8.526402e-01 5.224986e-01 0.000000e+00
    outer loop
      vertex   -1.782013e+00 -7.092019e+00 -5.344643e-16
      vertex   -1.618034e+00 -6.824430e+00 4.000000e+00
      vertex   -1.618034e+00 -6.824430e+00 -4.980537e-16
    endloop
  endfacet
  facet normal -7.604060e-01 6.494480e-01 0.000000e+00
    outer loop
      vertex   -1.618034e+00 -6.824430e+00 -4.980537e-16
      vertex   -1.618034e+00 -6.824430e+00 4.000000e+00
      vertex   -1.414214e+00 -6.585787e+00 4.000000e+00
    endloop
  endfacet
  facet normal -7.604060e-01 6.494480e-01 0.000000e+00
    outer loop
      vertex   -1.618034e+00 -6.824430e+00 -4.980537e-16
      vertex   -1.414214e+00 -6.585787e+00 4.000000e+00
      vertex   -1.414214e+00 -6.585787e+00 -4.527964e-16
    endloop
  endfacet
  facet normal -6.494480e-01 7.604060e-01 0.000000e+00
    outer loop
      vertex   -1.414214e+00 -6.585787e+00 -4.527964e-16
      vertex   -1.414214e+00 -6.585787e+00 4.000000e+00
      vertex   -1.175571e+00 -6.381966e+00 4.000000e+00
    endloop
  endfacet
  facet normal -6.494480e-01 7.604060e-01 1.326595e-16
    outer loop
      vertex   -1.414214e+00 -6.585787e+00 -4.527964e-16
      vertex   -1.175571e+00 -6.381966e+00 4.000000e+00
      vertex   -1.175571e+00 -6.381966e+00 -3.998070e-16
    endloop
  endfacet
  facet normal -5.224986e-01 8.526402e-01 1.603197e-16
    outer loop
      vertex   -1.175571e+00 -6.381966e+00 -3.998070e-16
      vertex   -1.175571e+00 -6.381966e+00 4.000000e+00
      vertex   -9.079813e-01 -6.217987e+00 4.000000e+00
    endloop
  endfacet
  facet normal -5.224986e-01 8.526402e-01 -3.316486e-17
    outer loop
      vertex   -1.175571e+00 -6.381966e+00 -3.998070e-16
      vertex   -9.079813e-01 -6.217987e+00 4.000000e+00
      vertex   -9.079813e-01 -6.217987e+00 -3.403902e-16
    endloop
  endfacet
  facet normal -3.826834e-01 9.238795e-01 -2.124320e-17
    outer loop
      vertex   -9.079813e-01 -6.217987e+00 -3.403902e-16
      vertex   -9.079813e-01 -6.217987e+00 4.000000e+00
      vertex   -6.180342e-01 -6.097887e+00 4.000000e+00
    endloop
  endfacet
  facet normal -3.826834e-01 9.238795e-01 -5.527477e-17
    outer loop
      vertex   -9.079813e-01 -6.217987e+00 -3.403902e-16
      vertex   -6.180342e-01 -6.097887e+00 4.000000e+00
      vertex   -6.180342e-01 -6.097887e+00 -2.760090e-16
    endloop
  endfacet
  facet normal -2.334454e-01 9.723699e-01 -3.239705e-17
    outer loop
      vertex   -6.180342e-01 -6.097887e+00 -2.760090e-16
      vertex   -6.180342e-01 -6.097887e+00 4.000000e+00
      vertex   -3.128692e-01 -6.024623e+00 4.000000e+00
    endloop
  endfacet
  facet normal -2.334454e-01 9.723699e-01 -1.105495e-17
    outer loop
      vertex   -6.180342e-01 -6.097887e+00 -2.760090e-16
      vertex   -3.128692e-01 -6.024623e+00 4.000000e+00
      vertex   -3.128692e-01 -6.024623e+00 -2.082488e-16
    endloop
  endfacet
  facet normal -7.845910e-02 9.969173e-01 -3.266516e-18
    outer loop
      vertex   -3.128692e-01 -6.024623e+00 -2.082488e-16
      vertex   -3.128692e-01 -6.024623e+00 4.000000e+00
      vertex   -2.533197e-07 -6.000000e+00 -1.387779e-16
    endloop
  endfacet
  facet normal -7.845910e-02 9.969173e-01 0.000000e+00
    outer loop
      vertex   -2.533197e-07 -6.000000e+00 -1.387779e-16
      vertex   -3.128692e-01 -6.024623e+00 4.000000e+00
      vertex   -2.533197e-07 -6.000000e+00 4.000000e+00
    endloop
  endfacet
  facet normal -1.000000e+00 0.000000e+00 0.000000e+00
    outer loop
      vertex   -2.000000e+00 -8.000000e+00 -5.828671e-16
      vertex   -2.000000e+00 -9.000000e+00 -5.828671e-16
      vertex   -2.000000e+00 -8.000000e+00 4.000000e+00
    endloop
  endfacet
  facet normal -1.000000e+00 -0.000000e+00 0.000000e+00
    outer loop
      vertex   -2.000000e+00 -8.000000e+00 4.000000e+00
      vertex   -2.000000e+00 -9.000000e+00 -5.828671e-16
      vertex   -2.000000e+00 -9.000000e+00 4.000000e+00
    endloop
  endfacet
  facet normal 7.845910e-02 9.969173e-01 3.484284e-17
    outer loop
      vertex   1.300000e+01 -6.000000e+00 2.747802e-15
      vertex   1.300000e+01 -6.000000e+00 4.000000e+00
      vertex   1.331287e+01 -6.024623e+00 2.817273e-15
    endloop
  endfacet
  facet normal 7.845910e-02 9.969173e-01 4.775631e-16
    outer loop
      vertex   1.331287e+01 -6.024623e+00 2.817273e-15
      vertex   1.300000e+01 -6.000000e+00 4.000000e+00
      vertex   1.331287e+01 -6.024623e+00 4.000000e+00
    endloop
  endfacet
  facet normal 2.334454e-01 9.723699e-01 5.354896e-16
    outer loop
      vertex   1.331287e+01 -6.024623e+00 2.817273e-15
      vertex   1.331287e+01 -6.024623e+00 4.000000e+00
      vertex   1.361803e+01 -6.097887e+00 4.000000e+00
    endloop
  endfacet
  facet normal 2.334454e-01 9.723699e-01 -1.105495e-16
    outer loop
      vertex   1.331287e+01 -6.024623e+00 2.817273e-15
      vertex   1.361803e+01 -6.097887e+00 4.000000e+00
      vertex   1.361803e+01 -6.097887e+00 2.885033e-15
    endloop
  endfacet
  facet normal 3.826834e-01 9.238795e-01 -3.519688e-17
    outer loop
      vertex   1.361803e+01 -6.097887e+00 2.885033e-15
      vertex   1.361803e+01 -6.097887e+00 4.000000e+00
      vertex   1.390798e+01 -6.217987e+00 4.000000e+00
    endloop
  endfacet
  facet normal 3.826834e-01 9.238795e-01 -3.316486e-17
    outer loop
      vertex   1.361803e+01 -6.097887e+00 2.885033e-15
      vertex   1.390798e+01 -6.217987e+00 4.000000e+00
      vertex   1.390798e+01 -6.217987e+00 2.949414e-15
    endloop
  endfacet
  facet normal 5.224986e-01 8.526402e-01 4.271183e-17
    outer loop
      vertex   1.390798e+01 -6.217987e+00 2.949414e-15
      vertex   1.390798e+01 -6.217987e+00 4.000000e+00
      vertex   1.417557e+01 -6.381966e+00 4.000000e+00
    endloop
  endfacet
  facet normal 5.224986e-01 8.526402e-01 6.964621e-16
    outer loop
      vertex   1.390798e+01 -6.217987e+00 2.949414e-15
      vertex   1.417557e+01 -6.381966e+00 4.000000e+00
      vertex   1.417557e+01 -6.381966e+00 3.008831e-15
    endloop
  endfacet
  facet normal 6.494480e-01 7.604060e-01 8.652386e-16
    outer loop
      vertex   1.417557e+01 -6.381966e+00 3.008831e-15
      vertex   1.417557e+01 -6.381966e+00 4.000000e+00
      vertex   1.441421e+01 -6.585787e+00 4.000000e+00
    endloop
  endfacet
  facet normal 6.494480e-01 7.604060e-01 2.874288e-16
    outer loop
      vertex   1.417557e+01 -6.381966e+00 3.008831e-15
      vertex   1.441421e+01 -6.585787e+00 4.000000e+00
      vertex   1.441421e+01 -6.585787e+00 3.061820e-15
    endloop
  endfacet
  facet normal 7.604060e-01 6.494480e-01 3.376881e-16
    outer loop
      vertex   1.441421e+01 -6.585787e+00 3.061820e-15
      vertex   1.441421e+01 -6.585787e+00 4.000000e+00
      vertex   1.461803e+01 -6.824430e+00 4.000000e+00
    endloop
  endfacet
  facet normal 7.604060e-01 6.494480e-01 3.371761e-16
    outer loop
      vertex   1.441421e+01 -6.585787e+00 3.061820e-15
      vertex   1.461803e+01 -6.824430e+00 4.000000e+00
      vertex   1.461803e+01 -6.824430e+00 3.107078e-15
    endloop
  endfacet
  facet normal 8.526402e-01 5.224986e-01 3.786483e-16
    outer loop
      vertex   1.461803e+01 -6.824430e+00 3.107078e-15
      vertex   1.461803e+01 -6.824430e+00 4.000000e+00
      vertex   1.478201e+01 -7.092019e+00 4.000000e+00
    endloop
  endfacet
  facet normal 8.526402e-01 5.224986e-01 3.758685e-16
    outer loop
      vertex   1.461803e+01 -6.824430e+00 3.107078e-15
      vertex   1.478201e+01 -7.092019e+00 4.000000e+00
      vertex   1.478201e+01 -7.092019e+00 3.143488e-15
    endloop
  endfacet
  facet normal 9.238795e-01 3.826834e-01 4.102849e-16
    outer loop
      vertex   1.478201e+01 -7.092019e+00 3.143488e-15
      vertex   1.478201e+01 -7.092019e+00 4.000000e+00
      vertex   1.490211e+01 -7.381966e+00 4.000000e+00
    endloop
  endfacet
  facet normal 9.238795e-01 3.826834e-01 0.000000e+00
    outer loop
      vertex   1.478201e+01 -7.092019e+00 3.143488e-15
      vertex   1.490211e+01 -7.381966e+00 4.000000e+00
      vertex   1.490211e+01 -7.381966e+00 3.170156e-15
    endloop
  endfacet
  facet normal 9.723699e-01 2.334454e-01 -0.000000e+00
    outer loop
      vertex   1.490211e+01 -7.381966e+00 3.170156e-15
      vertex   1.490211e+01 -7.381966e+00 4.000000e+00
      vertex   1.497538e+01 -7.687131e+00 4.000000e+00
    endloop
  endfacet
  facet normal 9.723699e-01 2.334454e-01 4.311432e-16
    outer loop
      vertex   1.490211e+01 -7.381966e+00 3.170156e-15
      vertex   1.497538e+01 -7.687131e+00 4.000000e+00
      vertex   1.497538e+01 -7.687131e+00 3.186424e-15
    endloop
  endfacet
  facet normal 9.969173e-01 7.845910e-02 4.427202e-16
    outer loop
      vertex   1.497538e+01 -7.687131e+00 3.186424e-15
      vertex   1.497538e+01 -7.687131e+00 4.000000e+00
      vertex   1.500000e+01 -8.000000e+00 3.191891e-15
    endloop
  endfacet
  facet normal 9.969173e-01 7.845910e-02 -0.000000e+00
    outer loop
      vertex   1.500000e+01 -8.000000e+00 3.191891e-15
      vertex   1.497538e+01 -7.687131e+00 4.000000e+00
      vertex   1.500000e+01 -8.000000e+00 4.000000e+00
    endloop
  endfacet
  facet normal 1.000000e+00 0.000000e+00 0.000000e+00
    outer loop
      vertex   -2.000000e+00 -7.200000e+01 -5.828671e-16
      vertex   -2.000000e+00 -9.000000e+00 -5.828671e-16
      vertex   -2.000000e+00 -7.200000e+01 4.000000e+00
    endloop
  endfacet
  facet normal 1.000000e+00 -0.000000e+00 0.000000e+00
    outer loop
      vertex   -2.000000e+00 -7.200000e+01 4.000000e+00
      vertex   -2.000000e+00 -9.000000e+00 -5.828671e-16
      vertex   -2.000000e+00 -9.000000e+00 4.000000e+00
    endloop
  endfacet
  facet normal 0.000000e+00 1.000000e+00 0.000000e+00
    outer loop
      vertex   1.200000e+01 -7.200000e+01 2.525757e-15
      vertex   -2.000000e+00 -7.200000e+01 -5.828671e-16
      vertex   1.200000e+01 -7.200000e+01 4.000000e+00
    endloop
  endfacet
  facet normal 0.000000e+00 1.000000e+00 0.000000e+00
    outer loop
      vertex   1.200000e+01 -7.200000e+01 4.000000e+00
      vertex   -2.000000e+00 -7.200000e+01 -5.828671e-16
      vertex   -2.000000e+00 -7.200000e+01 4.000000e+00
    endloop
  endfacet
  facet normal 1.000000e+00 -0.000000e+00 4.440892e-16
    outer loop
      vertex   1.200000e+01 -7.300000e+01 2.525757e-15
      vertex   1.200000e+01 -7.200000e+01 2.525757e-15
      vertex   1.200000e+01 -7.300000e+01 4.000000e+00
    endloop
  endfacet
  facet normal 1.000000e+00 -0.000000e+00 4.440892e-16
    outer loop
      vertex   1.200000e+01 -7.300000e+01 4.000000e+00
      vertex   1.200000e+01 -7.200000e+01 2.525757e-15
      vertex   1.200000e+01 -7.200000e+01 4.000000e+00
    endloop
  endfacet
  facet normal -1.776357e-15 1.000000e+00 0.000000e+00
    outer loop
      vertex   -3.000000e+00 -9.000000e+00 4.000000e+00
      vertex   -2.000000e+00 -9.000000e+00 4.000000e+00
      vertex   -3.000000e+00 -9.000000e+00 -8.049117e-16
    endloop
  endfacet
  facet normal 9.860761e-32 1.000000e+00 -4.440892e-16
    outer loop
      vertex   -3.000000e+00 -9.000000e+00 -8.049117e-16
      vertex   -2.000000e+00 -9.000000e+00 4.000000e+00
      vertex   -2.000000e+00 -9.000000e+00 -5.828671e-16
    endloop
  endfacet
  facet normal 3.944306e-31 -2.220446e-16 1.000000e+00
    outer loop
      vertex   -2.000000e+00 -9.000000e+00 4.000000e+00
      vertex   -3.000000e+00 -9.000000e+00 4.000000e+00
      vertex   -5.000000e+00 -1.100000e+01 4.000000e+00
    endloop
  endfacet
  facet normal 1.896811e-17 -2.410127e-16 1.000000e+00
    outer loop
      vertex   -5.000000e+00 -1.100000e+01 4.000000e+00
      vertex   -3.000000e+00 -9.000000e+00 4.000000e+00
      vertex   -3.312869e+00 -9.024623e+00 4.000000e+00
    endloop
  endfacet
  facet normal -1.762707e-15 1.280682e-15 1.000000e+00
    outer loop
      vertex   -5.000000e+00 -1.100000e+01 4.000000e+00
      vertex   -3.312869e+00 -9.024623e+00 4.000000e+00
      vertex   -3.618034e+00 -9.097887e+00 4.000000e+00
    endloop
  endfacet
  facet normal 0.000000e+00 0.000000e+00 1.000000e+00
    outer loop
      vertex   -3.618034e+00 -9.097887e+00 4.000000e+00
      vertex   -3.907981e+00 -9.217987e+00 4.000000e+00
      vertex   -5.000000e+00 -1.100000e+01 4.000000e+00
    endloop
  endfacet
  facet normal 0.000000e+00 0.000000e+00 1.000000e+00
    outer loop
      vertex   -5.000000e+00 -1.100000e+01 4.000000e+00
      vertex   -3.907981e+00 -9.217987e+00 4.000000e+00
      vertex   -4.175571e+00 -9.381966e+00 4.000000e+00
    endloop
  endfacet
  facet normal 0.000000e+00 0.000000e+00 1.000000e+00
    outer loop
      vertex   -5.000000e+00 -1.100000e+01 4.000000e+00
      vertex   -4.175571e+00 -9.381966e+00 4.000000e+00
      vertex   -4.414214e+00 -9.585787e+00 4.000000e+00
    endloop
  endfacet
  facet normal 0.000000e+00 0.000000e+00 1.000000e+00
    outer loop
      vertex   -4.414214e+00 -9.585787e+00 4.000000e+00
      vertex   -4.618034e+00 -9.824430e+00 4.000000e+00
      vertex   -5.000000e+00 -1.100000e+01 4.000000e+00
    endloop
  endfacet
  facet normal 0.000000e+00 0.000000e+00 1.000000e+00
    outer loop
      vertex   -5.000000e+00 -1.100000e+01 4.000000e+00
      vertex   -4.618034e+00 -9.824430e+00 4.000000e+00
      vertex   -4.782013e+00 -1.009202e+01 4.000000e+00
    endloop
  endfacet
  facet normal 0.000000e+00 0.000000e+00 1.000000e+00
    outer loop
      vertex   -5.000000e+00 -1.100000e+01 4.000000e+00
      vertex   -4.782013e+00 -1.009202e+01 4.000000e+00
      vertex   -4.902113e+00 -1.038197e+01 4.000000e+00
    endloop
  endfacet
  facet normal 1.781327e-14 -2.821344e-15 1.000000e+00
    outer loop
      vertex   -4.902113e+00 -1.038197e+01 4.000000e+00
      vertex   -4.975377e+00 -1.068713e+01 4.000000e+00
      vertex   -5.000000e+00 -1.100000e+01 4.000000e+00
    endloop
  endfacet
  facet normal -1.480297e-16 0.000000e+00 1.000000e+00
    outer loop
      vertex   -2.000000e+00 -9.000000e+00 4.000000e+00
      vertex   -5.000000e+00 -1.100000e+01 4.000000e+00
      vertex   -2.000000e+00 -7.200000e+01 4.000000e+00
    endloop
  endfacet
  facet normal -1.480297e-16 0.000000e+00 1.000000e+00
    outer loop
      vertex   -2.000000e+00 -7.200000e+01 4.000000e+00
      vertex   -5.000000e+00 -1.100000e+01 4.000000e+00
      vertex   -5.000000e+00 -7.300000e+01 4.000000e+00
    endloop
  endfacet
  facet normal -1.229210e-16 -7.532611e-17 1.000000e+00
    outer loop
      vertex   -2.000000e+00 -7.200000e+01 4.000000e+00
      vertex   -5.000000e+00 -7.300000e+01 4.000000e+00
      vertex   -3.907981e+00 -7.478201e+01 4.000000e+00
    endloop
  endfacet
  facet normal 0.000000e+00 0.000000e+00 1.000000e+00
    outer loop
      vertex   -3.907981e+00 -7.478201e+01 4.000000e+00
      vertex   -5.000000e+00 -7.300000e+01 4.000000e+00
      vertex   -4.175571e+00 -7.461803e+01 4.000000e+00
    endloop
  endfacet
  facet normal 0.000000e+00 0.000000e+00 1.000000e+00
    outer loop
      vertex   -4.175571e+00 -7.461803e+01 4.000000e+00
      vertex   -5.000000e+00 -7.300000e+01 4.000000e+00
      vertex   -4.414214e+00 -7.441421e+01 4.000000e+00
    endloop
  endfacet
  facet normal 0.000000e+00 0.000000e+00 1.000000e+00
    outer loop
      vertex   -4.414214e+00 -7.441421e+01 4.000000e+00
      vertex   -5.000000e+00 -7.300000e+01 4.000000e+00
      vertex   -4.618034e+00 -7.417557e+01 4.000000e+00
    endloop
  endfacet
  facet normal 0.000000e+00 0.000000e+00 1.000000e+00
    outer loop
      vertex   -4.618034e+00 -7.417557e+01 4.000000e+00
      vertex   -5.000000e+00 -7.300000e+01 4.000000e+00
      vertex   -4.782013e+00 -7.390798e+01 4.000000e+00
    endloop
  endfacet
  facet normal 0.000000e+00 0.000000e+00 1.000000e+00
    outer loop
      vertex   -4.782013e+00 -7.390798e+01 4.000000e+00
      vertex   -5.000000e+00 -7.300000e+01 4.000000e+00
      vertex   -4.902113e+00 -7.361803e+01 4.000000e+00
    endloop
  endfacet
  facet normal 1.781327e-14 2.821344e-15 1.000000e+00
    outer loop
      vertex   -4.902113e+00 -7.361803e+01 4.000000e+00
      vertex   -5.000000e+00 -7.300000e+01 4.000000e+00
      vertex   -4.975377e+00 -7.331287e+01 4.000000e+00
    endloop
  endfacet
  facet normal -5.149246e-17 -1.243138e-16 1.000000e+00
    outer loop
      vertex   -3.907981e+00 -7.478201e+01 4.000000e+00
      vertex   -3.618034e+00 -7.490211e+01 4.000000e+00
      vertex   -2.000000e+00 -7.200000e+01 4.000000e+00
    endloop
  endfacet
  facet normal -1.315850e-15 5.806117e-16 1.000000e+00
    outer loop
      vertex   -2.000000e+00 -7.200000e+01 4.000000e+00
      vertex   -3.618034e+00 -7.490211e+01 4.000000e+00
      vertex   -3.312869e+00 -7.497538e+01 4.000000e+00
    endloop
  endfacet
  facet normal 0.000000e+00 0.000000e+00 1.000000e+00
    outer loop
      vertex   -2.000000e+00 -7.200000e+01 4.000000e+00
      vertex   -3.312869e+00 -7.497538e+01 4.000000e+00
      vertex   -3.000000e+00 -7.500000e+01 4.000000e+00
    endloop
  endfacet
  facet normal -2.391250e-16 7.970830e-17 1.000000e+00
    outer loop
      vertex   -3.000000e+00 -7.500000e+01 4.000000e+00
      vertex   1.000000e+01 -7.500000e+01 4.000000e+00
      vertex   -2.000000e+00 -7.200000e+01 4.000000e+00
    endloop
  endfacet
  facet normal -2.220446e-16 1.480297e-16 1.000000e+00
    outer loop
      vertex   -2.000000e+00 -7.200000e+01 4.000000e+00
      vertex   1.000000e+01 -7.500000e+01 4.000000e+00
      vertex   1.200000e+01 -7.200000e+01 4.000000e+00
    endloop
  endfacet
  facet normal 0.000000e+00 0.000000e+00 1.000000e+00
    outer loop
      vertex   1.200000e+01 -7.200000e+01 4.000000e+00
      vertex   1.000000e+01 -7.500000e+01 4.000000e+00
      vertex   1.031287e+01 -7.497538e+01 4.000000e+00
    endloop
  endfacet
  facet normal 0.000000e+00 0.000000e+00 1.000000e+00
    outer loop
      vertex   1.200000e+01 -7.200000e+01 4.000000e+00
      vertex   1.031287e+01 -7.497538e+01 4.000000e+00
      vertex   1.061803e+01 -7.490211e+01 4.000000e+00
    endloop
  endfacet
  facet normal 0.000000e+00 0.000000e+00 1.000000e+00
    outer loop
      vertex   1.061803e+01 -7.490211e+01 4.000000e+00
      vertex   1.090798e+01 -7.478201e+01 4.000000e+00
      vertex   1.200000e+01 -7.200000e+01 4.000000e+00
    endloop
  endfacet
  facet normal 0.000000e+00 0.000000e+00 1.000000e+00
    outer loop
      vertex   1.200000e+01 -7.200000e+01 4.000000e+00
      vertex   1.090798e+01 -7.478201e+01 4.000000e+00
      vertex   1.117557e+01 -7.461803e+01 4.000000e+00
    endloop
  endfacet
  facet normal 0.000000e+00 0.000000e+00 1.000000e+00
    outer loop
      vertex   1.200000e+01 -7.200000e+01 4.000000e+00
      vertex   1.117557e+01 -7.461803e+01 4.000000e+00
      vertex   1.141421e+01 -7.441421e+01 4.000000e+00
    endloop
  endfacet
  facet normal 0.000000e+00 0.000000e+00 1.000000e+00
    outer loop
      vertex   1.141421e+01 -7.441421e+01 4.000000e+00
      vertex   1.161803e+01 -7.417557e+01 4.000000e+00
      vertex   1.200000e+01 -7.200000e+01 4.000000e+00
    endloop
  endfacet
  facet normal 0.000000e+00 0.000000e+00 1.000000e+00
    outer loop
      vertex   1.200000e+01 -7.200000e+01 4.000000e+00
      vertex   1.161803e+01 -7.417557e+01 4.000000e+00
      vertex   1.178201e+01 -7.390798e+01 4.000000e+00
    endloop
  endfacet
  facet normal 0.000000e+00 0.000000e+00 1.000000e+00
    outer loop
      vertex   1.200000e+01 -7.200000e+01 4.000000e+00
      vertex   1.178201e+01 -7.390798e+01 4.000000e+00
      vertex   1.190211e+01 -7.361803e+01 4.000000e+00
    endloop
  endfacet
  facet normal 0.000000e+00 -0.000000e+00 1.000000e+00
    outer loop
      vertex   1.197538e+01 -7.331287e+01 4.000000e+00
      vertex   1.200000e+01 -7.300000e+01 4.000000e+00
      vertex   1.190211e+01 -7.361803e+01 4.000000e+00
    endloop
  endfacet
  facet normal 0.000000e+00 0.000000e+00 1.000000e+00
    outer loop
      vertex   1.190211e+01 -7.361803e+01 4.000000e+00
      vertex   1.200000e+01 -7.300000e+01 4.000000e+00
      vertex   1.200000e+01 -7.200000e+01 4.000000e+00
    endloop
  endfacet
  facet normal -0.000000e+00 -1.000000e+00 -0.000000e+00
    outer loop
      vertex   1.300000e+01 -7.200000e+01 4.000000e+00
      vertex   1.200000e+01 -7.200000e+01 4.000000e+00
      vertex   1.300000e+01 -7.200000e+01 2.747802e-15
    endloop
  endfacet
  facet normal -0.000000e+00 -1.000000e+00 0.000000e+00
    outer loop
      vertex   1.300000e+01 -7.200000e+01 2.747802e-15
      vertex   1.200000e+01 -7.200000e+01 4.000000e+00
      vertex   1.200000e+01 -7.200000e+01 2.525757e-15
    endloop
  endfacet
  facet normal -1.000000e+00 -0.000000e+00 -4.440892e-16
    outer loop
      vertex   1.200000e+01 -9.000000e+00 2.525757e-15
      vertex   1.200000e+01 -7.200000e+01 2.525757e-15
      vertex   1.200000e+01 -9.000000e+00 4.000000e+00
    endloop
  endfacet
  facet normal -1.000000e+00 -0.000000e+00 -4.440892e-16
    outer loop
      vertex   1.200000e+01 -9.000000e+00 4.000000e+00
      vertex   1.200000e+01 -7.200000e+01 2.525757e-15
      vertex   1.200000e+01 -7.200000e+01 4.000000e+00
    endloop
  endfacet
  facet normal 1.268826e-16 -1.000000e+00 4.440892e-16
    outer loop
      vertex   -2.000000e+00 -9.000000e+00 -5.828671e-16
      vertex   1.200000e+01 -9.000000e+00 2.525757e-15
      vertex   -2.000000e+00 -9.000000e+00 4.000000e+00
    endloop
  endfacet
  facet normal 0.000000e+00 -1.000000e+00 0.000000e+00
    outer loop
      vertex   -2.000000e+00 -9.000000e+00 4.000000e+00
      vertex   1.200000e+01 -9.000000e+00 2.525757e-15
      vertex   1.200000e+01 -9.000000e+00 4.000000e+00
    endloop
  endfacet
  facet normal -0.000000e+00 1.000000e+00 0.000000e+00
    outer loop
      vertex   -2.533197e-07 -6.000000e+00 4.000000e+00
      vertex   1.300000e+01 -6.000000e+00 4.000000e+00
      vertex   -2.533197e-07 -6.000000e+00 -1.387779e-16
    endloop
  endfacet
  facet normal 0.000000e+00 1.000000e+00 0.000000e+00
    outer loop
      vertex   -2.533197e-07 -6.000000e+00 -1.387779e-16
      vertex   1.300000e+01 -6.000000e+00 4.000000e+00
      vertex   1.300000e+01 -6.000000e+00 2.747802e-15
    endloop
  endfacet
  facet normal 0.000000e+00 -4.440892e-16 1.000000e+00
    outer loop
      vertex   1.200000e+01 -7.200000e+01 4.000000e+00
      vertex   1.300000e+01 -7.200000e+01 4.000000e+00
      vertex   1.500000e+01 -7.000000e+01 4.000000e+00
    endloop
  endfacet
  facet normal 3.793622e-17 -4.820254e-16 1.000000e+00
    outer loop
      vertex   1.500000e+01 -7.000000e+01 4.000000e+00
      vertex   1.300000e+01 -7.200000e+01 4.000000e+00
      vertex   1.331287e+01 -7.197538e+01 4.000000e+00
    endloop
  endfacet
  facet normal -3.525414e-15 2.561363e-15 1.000000e+00
    outer loop
      vertex   1.500000e+01 -7.000000e+01 4.000000e+00
      vertex   1.331287e+01 -7.197538e+01 4.000000e+00
      vertex   1.361803e+01 -7.190211e+01 4.000000e+00
    endloop
  endfacet
  facet normal 0.000000e+00 0.000000e+00 1.000000e+00
    outer loop
      vertex   1.361803e+01 -7.190211e+01 4.000000e+00
      vertex   1.390798e+01 -7.178201e+01 4.000000e+00
      vertex   1.500000e+01 -7.000000e+01 4.000000e+00
    endloop
  endfacet
  facet normal 0.000000e+00 0.000000e+00 1.000000e+00
    outer loop
      vertex   1.500000e+01 -7.000000e+01 4.000000e+00
      vertex   1.390798e+01 -7.178201e+01 4.000000e+00
      vertex   1.417557e+01 -7.161803e+01 4.000000e+00
    endloop
  endfacet
  facet normal 0.000000e+00 0.000000e+00 1.000000e+00
    outer loop
      vertex   1.500000e+01 -7.000000e+01 4.000000e+00
      vertex   1.417557e+01 -7.161803e+01 4.000000e+00
      vertex   1.441421e+01 -7.141421e+01 4.000000e+00
    endloop
  endfacet
  facet normal 0.000000e+00 0.000000e+00 1.000000e+00
    outer loop
      vertex   1.441421e+01 -7.141421e+01 4.000000e+00
      vertex   1.461803e+01 -7.117557e+01 4.000000e+00
      vertex   1.500000e+01 -7.000000e+01 4.000000e+00
    endloop
  endfacet
  facet normal 0.000000e+00 0.000000e+00 1.000000e+00
    outer loop
      vertex   1.500000e+01 -7.000000e+01 4.000000e+00
      vertex   1.461803e+01 -7.117557e+01 4.000000e+00
      vertex   1.478201e+01 -7.090798e+01 4.000000e+00
    endloop
  endfacet
  facet normal 0.000000e+00 0.000000e+00 1.000000e+00
    outer loop
      vertex   1.500000e+01 -7.000000e+01 4.000000e+00
      vertex   1.478201e+01 -7.090798e+01 4.000000e+00
      vertex   1.490211e+01 -7.061803e+01 4.000000e+00
    endloop
  endfacet
  facet normal 3.562653e-14 -5.642688e-15 1.000000e+00
    outer loop
      vertex   1.490211e+01 -7.061803e+01 4.000000e+00
      vertex   1.497538e+01 -7.031287e+01 4.000000e+00
      vertex   1.500000e+01 -7.000000e+01 4.000000e+00
    endloop
  endfacet
  facet normal -2.960595e-16 0.000000e+00 1.000000e+00
    outer loop
      vertex   1.200000e+01 -7.200000e+01 4.000000e+00
      vertex   1.500000e+01 -7.000000e+01 4.000000e+00
      vertex   1.200000e+01 -9.000000e+00 4.000000e+00
    endloop
  endfacet
  facet normal -2.960595e-16 0.000000e+00 1.000000e+00
    outer loop
      vertex   1.200000e+01 -9.000000e+00 4.000000e+00
      vertex   1.500000e+01 -7.000000e+01 4.000000e+00
      vertex   1.500000e+01 -8.000000e+00 4.000000e+00
    endloop
  endfacet
  facet normal -2.458421e-16 -1.506522e-16 1.000000e+00
    outer loop
      vertex   1.200000e+01 -9.000000e+00 4.000000e+00
      vertex   1.500000e+01 -8.000000e+00 4.000000e+00
      vertex   1.390798e+01 -6.217987e+00 4.000000e+00
    endloop
  endfacet
  facet normal 0.000000e+00 0.000000e+00 1.000000e+00
    outer loop
      vertex   1.390798e+01 -6.217987e+00 4.000000e+00
      vertex   1.500000e+01 -8.000000e+00 4.000000e+00
      vertex   1.417557e+01 -6.381966e+00 4.000000e+00
    endloop
  endfacet
  facet normal 0.000000e+00 0.000000e+00 1.000000e+00
    outer loop
      vertex   1.417557e+01 -6.381966e+00 4.000000e+00
      vertex   1.500000e+01 -8.000000e+00 4.000000e+00
      vertex   1.441421e+01 -6.585787e+00 4.000000e+00
    endloop
  endfacet
  facet normal 0.000000e+00 0.000000e+00 1.000000e+00
    outer loop
      vertex   1.441421e+01 -6.585787e+00 4.000000e+00
      vertex   1.500000e+01 -8.000000e+00 4.000000e+00
      vertex   1.461803e+01 -6.824430e+00 4.000000e+00
    endloop
  endfacet
  facet normal 0.000000e+00 0.000000e+00 1.000000e+00
    outer loop
      vertex   1.461803e+01 -6.824430e+00 4.000000e+00
      vertex   1.500000e+01 -8.000000e+00 4.000000e+00
      vertex   1.478201e+01 -7.092019e+00 4.000000e+00
    endloop
  endfacet
  facet normal 0.000000e+00 0.000000e+00 1.000000e+00
    outer loop
      vertex   1.478201e+01 -7.092019e+00 4.000000e+00
      vertex   1.500000e+01 -8.000000e+00 4.000000e+00
      vertex   1.490211e+01 -7.381966e+00 4.000000e+00
    endloop
  endfacet
  facet normal 3.562653e-14 5.642688e-15 1.000000e+00
    outer loop
      vertex   1.490211e+01 -7.381966e+00 4.000000e+00
      vertex   1.500000e+01 -8.000000e+00 4.000000e+00
      vertex   1.497538e+01 -7.687131e+00 4.000000e+00
    endloop
  endfacet
  facet normal -1.029849e-16 -2.486276e-16 1.000000e+00
    outer loop
      vertex   1.390798e+01 -6.217987e+00 4.000000e+00
      vertex   1.361803e+01 -6.097887e+00 4.000000e+00
      vertex   1.200000e+01 -9.000000e+00 4.000000e+00
    endloop
  endfacet
  facet normal -2.631700e-15 1.161224e-15 1.000000e+00
    outer loop
      vertex   1.200000e+01 -9.000000e+00 4.000000e+00
      vertex   1.361803e+01 -6.097887e+00 4.000000e+00
      vertex   1.331287e+01 -6.024623e+00 4.000000e+00
    endloop
  endfacet
  facet normal 0.000000e+00 0.000000e+00 1.000000e+00
    outer loop
      vertex   1.200000e+01 -9.000000e+00 4.000000e+00
      vertex   1.331287e+01 -6.024623e+00 4.000000e+00
      vertex   1.300000e+01 -6.000000e+00 4.000000e+00
    endloop
  endfacet
  facet normal -2.049642e-16 6.832142e-17 1.000000e+00
    outer loop
      vertex   1.300000e+01 -6.000000e+00 4.000000e+00
      vertex   -2.533197e-07 -6.000000e+00 4.000000e+00
      vertex   1.200000e+01 -9.000000e+00 4.000000e+00
    endloop
  endfacet
  facet normal -2.220446e-16 -2.678490e-24 1.000000e+00
    outer loop
      vertex   1.200000e+01 -9.000000e+00 4.000000e+00
      vertex   -2.533197e-07 -6.000000e+00 4.000000e+00
      vertex   -2.000000e+00 -9.000000e+00 4.000000e+00
    endloop
  endfacet
  facet normal 1.229530e-17 -1.562266e-16 1.000000e+00
    outer loop
      vertex   -2.000000e+00 -9.000000e+00 4.000000e+00
      vertex   -2.533197e-07 -6.000000e+00 4.000000e+00
      vertex   -3.128692e-01 -6.024623e+00 4.000000e+00
    endloop
  endfacet
  facet normal -1.643087e-15 7.824264e-16 1.000000e+00
    outer loop
      vertex   -2.000000e+00 -9.000000e+00 4.000000e+00
      vertex   -3.128692e-01 -6.024623e+00 4.000000e+00
      vertex   -6.180342e-01 -6.097887e+00 4.000000e+00
    endloop
  endfacet
  facet normal 0.000000e+00 0.000000e+00 1.000000e+00
    outer loop
      vertex   -6.180342e-01 -6.097887e+00 4.000000e+00
      vertex   -9.079813e-01 -6.217987e+00 4.000000e+00
      vertex   -2.000000e+00 -9.000000e+00 4.000000e+00
    endloop
  endfacet
  facet normal 0.000000e+00 0.000000e+00 1.000000e+00
    outer loop
      vertex   -2.000000e+00 -9.000000e+00 4.000000e+00
      vertex   -9.079813e-01 -6.217987e+00 4.000000e+00
      vertex   -1.175571e+00 -6.381966e+00 4.000000e+00
    endloop
  endfacet
  facet normal 0.000000e+00 0.000000e+00 1.000000e+00
    outer loop
      vertex   -2.000000e+00 -9.000000e+00 4.000000e+00
      vertex   -1.175571e+00 -6.381966e+00 4.000000e+00
      vertex   -1.414214e+00 -6.585787e+00 4.000000e+00
    endloop
  endfacet
  facet normal 0.000000e+00 0.000000e+00 1.000000e+00
    outer loop
      vertex   -1.414214e+00 -6.585787e+00 4.000000e+00
      vertex   -1.618034e+00 -6.824430e+00 4.000000e+00
      vertex   -2.000000e+00 -9.000000e+00 4.000000e+00
    endloop
  endfacet
  facet normal 0.000000e+00 0.000000e+00 1.000000e+00
    outer loop
      vertex   -2.000000e+00 -9.000000e+00 4.000000e+00
      vertex   -1.618034e+00 -6.824430e+00 4.000000e+00
      vertex   -1.782013e+00 -7.092019e+00 4.000000e+00
    endloop
  endfacet
  facet normal 0.000000e+00 0.000000e+00 1.000000e+00
    outer loop
      vertex   -2.000000e+00 -9.000000e+00 4.000000e+00
      vertex   -1.782013e+00 -7.092019e+00 4.000000e+00
      vertex   -1.902113e+00 -7.381966e+00 4.000000e+00
    endloop
  endfacet
  facet normal 1.781327e-14 -2.821344e-15 1.000000e+00
    outer loop
      vertex   -1.975377e+00 -7.687131e+00 4.000000e+00
      vertex   -2.000000e+00 -8.000000e+00 4.000000e+00
      vertex   -1.902113e+00 -7.381966e+00 4.000000e+00
    endloop
  endfacet
  facet normal 0.000000e+00 0.000000e+00 1.000000e+00
    outer loop
      vertex   -1.902113e+00 -7.381966e+00 4.000000e+00
      vertex   -2.000000e+00 -8.000000e+00 4.000000e+00
      vertex   -2.000000e+00 -9.000000e+00 4.000000e+00
    endloop
  endfacet
  facet normal 1.000000e+00 2.960595e-16 6.661338e-16
    outer loop
      vertex   5.500000e+00 1.900000e+01 4.000000e+00
      vertex   5.500000e+00 1.600000e+01 4.000000e+00
      vertex   5.500000e+00 1.900000e+01 4.440892e-15
    endloop
  endfacet
  facet normal 1.000000e+00 2.960595e-16 6.661338e-16
    outer loop
      vertex   5.500000e+00 1.900000e+01 4.440892e-15
      vertex   5.500000e+00 1.600000e+01 4.000000e+00
      vertex   5.500000e+00 1.600000e+01 4.440892e-15
    endloop
  endfacet
  facet normal -0.000000e+00 1.000000e+00 0.000000e+00
    outer loop
      vertex   5.500000e+00 1.600000e+01 4.000000e+00
      vertex   6.500000e+00 1.600000e+01 4.000000e+00
      vertex   5.500000e+00 1.600000e+01 4.440892e-15
    endloop
  endfacet
  facet normal 0.000000e+00 1.000000e+00 0.000000e+00
    outer loop
      vertex   5.500000e+00 1.600000e+01 4.440892e-15
      vertex   6.500000e+00 1.600000e+01 4.000000e+00
      vertex   6.500000e+00 1.600000e+01 4.440892e-15
    endloop
  endfacet
  facet normal -1.000000e+00 -5.921189e-16 -4.440892e-16
    outer loop
      vertex   6.500000e+00 1.600000e+01 4.000000e+00
      vertex   6.500000e+00 1.900000e+01 4.000000e+00
      vertex   6.500000e+00 1.600000e+01 4.440892e-15
    endloop
  endfacet
  facet normal -1.000000e+00 -2.960595e-16 -6.661338e-16
    outer loop
      vertex   6.500000e+00 1.600000e+01 4.440892e-15
      vertex   6.500000e+00 1.900000e+01 4.000000e+00
      vertex   6.500000e+00 1.900000e+01 4.440892e-15
    endloop
  endfacet
  facet normal 0.000000e+00 0.000000e+00 1.000000e+00
    outer loop
      vertex   6.500000e+00 1.900000e+01 4.000000e+00
      vertex   6.500000e+00 1.600000e+01 4.000000e+00
      vertex   8.500000e+00 1.900000e+01 4.000000e+00
    endloop
  endfacet
  facet normal 0.000000e+00 0.000000e+00 1.000000e+00
    outer loop
      vertex   8.500000e+00 1.900000e+01 4.000000e+00
      vertex   6.500000e+00 1.600000e+01 4.000000e+00
      vertex   8.500000e+00 1.500000e+01 4.000000e+00
    endloop
  endfacet
  facet normal 0.000000e+00 0.000000e+00 1.000000e+00
    outer loop
      vertex   8.500000e+00 1.500000e+01 4.000000e+00
      vertex   6.500000e+00 1.600000e+01 4.000000e+00
      vertex   5.500000e+00 1.600000e+01 4.000000e+00
    endloop
  endfacet
  facet normal -5.224579e-16 -1.567374e-15 1.000000e+00
    outer loop
      vertex   8.500000e+00 1.500000e+01 4.000000e+00
      vertex   5.500000e+00 1.600000e+01 4.000000e+00
      vertex   -8.881784e-16 1.500000e+01 4.000000e+00
    endloop
  endfacet
  facet normal -6.863197e-16 -6.661338e-16 1.000000e+00
    outer loop
      vertex   -8.881784e-16 1.500000e+01 4.000000e+00
      vertex   5.500000e+00 1.600000e+01 4.000000e+00
      vertex   -1.378037e-15 1.900000e+01 4.000000e+00
    endloop
  endfacet
  facet normal -3.229740e-16 -9.561950e-32 1.000000e+00
    outer loop
      vertex   -1.378037e-15 1.900000e+01 4.000000e+00
      vertex   5.500000e+00 1.600000e+01 4.000000e+00
      vertex   5.500000e+00 1.900000e+01 4.000000e+00
    endloop
  endfacet
  facet normal -1.083721e-08 1.000000e+00 -7.219031e-24
    outer loop
      vertex   5.500000e+00 1.900000e+01 4.440892e-15
      vertex   -4.898587e-16 1.900000e+01 2.220446e-15
      vertex   5.500000e+00 1.900000e+01 4.000000e+00
    endloop
  endfacet
  facet normal -1.083721e-08 1.000000e+00 -8.881784e-16
    outer loop
      vertex   5.500000e+00 1.900000e+01 4.000000e+00
      vertex   -4.898587e-16 1.900000e+01 2.220446e-15
      vertex   -1.378037e-15 1.900000e+01 4.000000e+00
    endloop
  endfacet
  facet normal 1.000000e+00 -0.000000e+00 4.440892e-16
    outer loop
      vertex   8.500000e+00 1.500000e+01 4.000000e+00
      vertex   8.500000e+00 1.500000e+01 4.440892e-15
      vertex   8.500000e+00 1.900000e+01 4.000000e+00
    endloop
  endfacet
  facet normal 1.000000e+00 0.000000e+00 4.440892e-16
    outer loop
      vertex   8.500000e+00 1.900000e+01 4.000000e+00
      vertex   8.500000e+00 1.500000e+01 4.440892e-15
      vertex   8.500000e+00 1.900000e+01 4.440892e-15
    endloop
  endfacet
  facet normal -1.000000e+00 -1.224647e-16 -2.220446e-16
    outer loop
      vertex   1.479114e-30 1.500000e+01 2.220446e-15
      vertex   -8.881784e-16 1.500000e+01 4.000000e+00
      vertex   -4.898587e-16 1.900000e+01 2.220446e-15
    endloop
  endfacet
  facet normal -1.000000e+00 -1.224647e-16 -2.220446e-16
    outer loop
      vertex   -4.898587e-16 1.900000e+01 2.220446e-15
      vertex   -8.881784e-16 1.500000e+01 4.000000e+00
      vertex   -1.378037e-15 1.900000e+01 4.000000e+00
    endloop
  endfacet
  facet normal 0.000000e+00 0.000000e+00 -1.000000e+00
    outer loop
      vertex   6.500000e+00 1.900000e+01 4.440892e-15
      vertex   8.500000e+00 1.900000e+01 4.440892e-15
      vertex   6.500000e+00 1.600000e+01 4.440892e-15
    endloop
  endfacet
  facet normal 0.000000e+00 0.000000e+00 -1.000000e+00
    outer loop
      vertex   6.500000e+00 1.600000e+01 4.440892e-15
      vertex   8.500000e+00 1.900000e+01 4.440892e-15
      vertex   8.500000e+00 1.500000e+01 4.440892e-15
    endloop
  endfacet
  facet normal -0.000000e+00 -0.000000e+00 -1.000000e+00
    outer loop
      vertex   6.500000e+00 1.600000e+01 4.440892e-15
      vertex   8.500000e+00 1.500000e+01 4.440892e-15
      vertex   5.500000e+00 1.600000e+01 4.440892e-15
    endloop
  endfacet
  facet normal 2.612289e-16 7.836868e-16 -1.000000e+00
    outer loop
      vertex   5.500000e+00 1.600000e+01 4.440892e-15
      vertex   8.500000e+00 1.500000e+01 4.440892e-15
      vertex   1.479114e-30 1.500000e+01 2.220446e-15
    endloop
  endfacet
  facet normal 4.037175e-16 7.171463e-32 -1.000000e+00
    outer loop
      vertex   5.500000e+00 1.600000e+01 4.440892e-15
      vertex   1.479114e-30 1.500000e+01 2.220446e-15
      vertex   -4.898587e-16 1.900000e+01 2.220446e-15
    endloop
  endfacet
  facet normal 4.037175e-16 9.561950e-32 -1.000000e+00
    outer loop
      vertex   -4.898587e-16 1.900000e+01 2.220446e-15
      vertex   5.500000e+00 1.900000e+01 4.440892e-15
      vertex   5.500000e+00 1.600000e+01 4.440892e-15
    endloop
  endfacet
  facet normal 2.980232e-08 1.000000e+00 1.985233e-23
    outer loop
      vertex   6.500000e+00 1.900000e+01 4.000000e+00
      vertex   8.500000e+00 1.900000e+01 4.000000e+00
      vertex   6.500000e+00 1.900000e+01 4.440892e-15
    endloop
  endfacet
  facet normal 2.980232e-08 1.000000e+00 -8.881784e-16
    outer loop
      vertex   6.500000e+00 1.900000e+01 4.440892e-15
      vertex   8.500000e+00 1.900000e+01 4.000000e+00
      vertex   8.500000e+00 1.900000e+01 4.440892e-15
    endloop
  endfacet
  facet normal 2.089832e-16 -1.000000e+00 9.280717e-32
    outer loop
      vertex   8.500000e+00 1.500000e+01 4.440892e-15
      vertex   8.500000e+00 1.500000e+01 4.000000e+00
      vertex   1.479114e-30 1.500000e+01 2.220446e-15
    endloop
  endfacet
  facet normal -2.552197e-31 -1.000000e+00 4.440892e-16
    outer loop
      vertex   1.479114e-30 1.500000e+01 2.220446e-15
      vertex   8.500000e+00 1.500000e+01 4.000000e+00
      vertex   -8.881784e-16 1.500000e+01 4.000000e+00
    endloop
  endfacet
endsolid
